<svg width="240" height="195" viewBox="0 0 240 195" fill="none" xmlns="http://www.w3.org/2000/svg">
<path d="M120.001 0C186.279 0 240 53.7762 240 120.122C240 147.381 230.919 172.531 215.622 192.697C213.678 195.26 210.027 195.76 207.467 193.814C204.907 191.868 204.407 188.213 206.351 185.65C220.165 167.439 228.36 144.747 228.36 120.122C228.36 60.2118 179.85 11.6527 120.001 11.6527C104.205 11.6527 89.1993 15.0352 75.6666 21.1161L71.541 10.1961C86.3608 3.64066 102.756 0 120.001 0Z" fill="#EDF4F4"/>
<mask id="mask0_3093_18648" style="mask-type:alpha" maskUnits="userSpaceOnUse" x="0" y="0" width="240" height="195">
<path fill-rule="evenodd" clip-rule="evenodd" d="M0 120.122C0 53.7762 53.7212 0 120 0C186.278 0 239.999 53.7762 239.999 120.122C239.999 147.381 230.917 172.531 215.621 192.697C213.677 195.26 210.026 195.76 207.465 193.814C204.905 191.868 204.406 188.213 206.35 185.65C220.163 167.439 228.358 144.747 228.358 120.122C228.358 60.2118 179.849 11.6527 120 11.6527C60.1503 11.6527 11.6408 60.2118 11.6408 120.122C11.6408 144.747 19.8358 167.439 33.6492 185.65C35.5932 188.213 35.0937 191.868 32.5336 193.814C29.9735 195.76 26.3222 195.26 24.3783 192.697C9.08183 172.531 0 147.381 0 120.122Z" fill="#EDF4F4"/>
</mask>
<g mask="url(#mask0_3093_18648)">
<path fill-rule="evenodd" clip-rule="evenodd" d="M79.1071 13.2615C80.3932 16.2106 79.0475 19.6449 76.1014 20.9322C37.8033 37.6678 11.0627 75.9121 11.0627 120.387C11.0627 145.012 19.2576 167.704 33.0711 185.914C35.0151 188.477 34.5156 192.132 31.9555 194.078C29.3954 196.024 25.7441 195.524 23.8001 192.961C8.50371 172.796 -0.578125 147.646 -0.578125 120.387C-0.578125 71.1159 29.0557 28.7757 71.4442 10.2527C74.3903 8.96536 77.8211 10.3124 79.1071 13.2615Z" fill="#EDF4F4"/>
</g>
</svg>
