<svg width="24" height="24" viewBox="0 0 24 24" fill="none" xmlns="http://www.w3.org/2000/svg">
<path d="M16.8643 10.6486C16.7782 10.742 16.7025 10.8313 16.6204 10.9135C14.5746 12.9593 12.5288 15.0059 10.4805 17.0492C10.045 17.484 9.59813 17.9075 9.16256 18.3423C8.73827 18.7641 8.22299 19.0202 7.6578 19.186C6.78022 19.4437 5.90104 19.6957 5.02185 19.9469C4.83023 20.0016 4.63298 20.0258 4.44055 19.9485C4.08791 19.8076 3.92367 19.4662 4.03397 19.0645C4.23364 18.3374 4.44538 17.6128 4.65552 16.8882C4.75696 16.5388 4.87129 16.1934 4.9679 15.8424C5.07015 15.472 5.2819 15.1757 5.54839 14.9092C7.20693 13.2515 8.86467 11.593 10.5224 9.93443C11.3879 9.06813 12.2518 8.20101 13.1173 7.33551C13.3379 7.11491 13.3419 7.11652 13.5585 7.3331C14.6349 8.40873 15.7098 9.48598 16.7854 10.5624C16.8088 10.5858 16.8305 10.6107 16.8643 10.647V10.6486Z" fill="white"/>
<path d="M17.6815 9.82655C16.5278 8.65752 15.3821 7.49654 14.2332 6.33234C14.2759 6.28484 14.3073 6.247 14.3419 6.21157C14.8813 5.65846 15.4175 5.10292 15.9618 4.55545C16.2315 4.28412 16.5551 4.10216 16.9368 4.03373C17.4883 3.9347 17.9874 4.07077 18.4343 4.3912C18.8916 4.71888 19.2797 5.12466 19.613 5.57392C20.1927 6.35569 20.1146 7.39026 19.423 8.1044C18.8972 8.64705 18.3489 9.16715 17.8103 9.69773C17.7701 9.73718 17.7298 9.77743 17.6815 9.82655Z" fill="white"/>
</svg>
