<svg width="24" height="24" viewBox="0 0 24 24" fill="none" xmlns="http://www.w3.org/2000/svg">
<path d="M9.2 17.6H8.8C5.6 17.6 4 16.8 4 12.8V8.8C4 5.6 5.6 4 8.8 4H15.2C18.4 4 20 5.6 20 8.8V12.8C20 16 18.4 17.6 15.2 17.6H14.8C14.552 17.6 14.312 17.72 14.16 17.92L12.96 19.52C12.432 20.224 11.568 20.224 11.04 19.52L9.84 17.92C9.712 17.744 9.416 17.6 9.2 17.6Z" stroke="#3A3A3A" stroke-miterlimit="10" stroke-linecap="round" stroke-linejoin="round"/>
<path d="M11.9864 7C12.3581 7 12.6992 7.06139 13.0061 7.16371C13.3165 7.28649 13.5723 7.44338 13.8008 7.64802C14.0157 7.85266 14.193 8.10164 14.3158 8.39154C14.4386 8.69168 14.5 9.0191 14.5 9.3704C14.5 9.6603 14.4488 9.90587 14.367 10.1344C14.2749 10.3629 14.1623 10.5675 14.0259 10.7517C13.8827 10.9359 13.7258 11.103 13.5621 11.2462C13.3779 11.3895 13.2005 11.5259 13.0368 11.6385C12.8834 11.7408 12.7469 11.8874 12.6241 12.0716C12.4911 12.266 12.4297 12.4638 12.4297 12.6685V13.2142H11.0996V12.6685C11.0996 12.2353 11.2019 11.8636 11.4304 11.5566C11.6351 11.2565 11.9352 10.9802 12.307 10.7312H12.2967C12.3888 10.6801 12.4911 10.6085 12.5969 10.5061C12.6992 10.4243 12.7913 10.322 12.8868 10.1958C12.9686 10.0832 13.03 9.95703 13.0914 9.81378C13.1426 9.68076 13.1733 9.53411 13.1733 9.3704C13.1733 8.93724 13.0607 8.62688 12.8424 8.42224C12.6173 8.23806 12.3377 8.13233 11.9864 8.13233C11.8431 8.13233 11.6965 8.16303 11.5634 8.22442C11.4202 8.29604 11.294 8.38813 11.1917 8.50409C11.0791 8.62688 10.9973 8.77353 10.9325 8.92701C10.8608 9.09072 10.8302 9.26808 10.8302 9.45225H9.5C9.5 9.12142 9.56139 8.80423 9.70464 8.49386C9.82742 8.20396 10.015 7.94816 10.2503 7.71965C10.4754 7.50477 10.7347 7.32742 11.045 7.19441C11.3349 7.07162 11.6521 7 11.9829 7H11.9864ZM12.5218 14.5989C12.5218 14.8035 12.4502 14.9809 12.3274 15.1241C12.1842 15.2674 11.9966 15.3492 11.7613 15.3492C11.5259 15.3492 11.3383 15.2674 11.2053 15.1241C11.0621 14.9809 10.9904 14.8035 10.9904 14.5989C10.9904 14.3943 11.0621 14.2067 11.2053 14.0634C11.3383 13.9202 11.5259 13.8486 11.7613 13.8486C11.9966 13.8486 12.1842 13.9202 12.3274 14.0634C12.4502 14.2067 12.5218 14.3943 12.5218 14.5989Z" fill="#252E33"/>
</svg>
