<svg width="17" height="16" viewBox="0 0 17 16" fill="none" xmlns="http://www.w3.org/2000/svg">
<path d="M14.3894 3.21893C13.6647 2.43291 12.6702 2 11.5891 2C10.781 2 10.0409 2.25549 9.38931 2.75932C9.06055 3.01364 8.76265 3.32478 8.5 3.68794C8.23746 3.32489 7.93945 3.01364 7.61058 2.75932C6.95914 2.25549 6.21904 2 5.4109 2C4.32976 2 3.33524 2.43291 2.61052 3.21893C1.89445 3.99577 1.5 5.05705 1.5 6.20741C1.5 7.39142 1.94124 8.47523 2.88855 9.61833C3.73599 10.6408 4.95396 11.6788 6.36441 12.8808C6.84602 13.2913 7.39194 13.7565 7.95879 14.2521C8.10854 14.3833 8.30069 14.4555 8.5 14.4555C8.6992 14.4555 8.89146 14.3833 9.041 14.2523C9.60785 13.7566 10.1541 13.2912 10.6359 12.8805C12.0461 11.6787 13.2641 10.6408 14.1116 9.61823C15.0589 8.47523 15.5 7.39142 15.5 6.20731C15.5 5.05705 15.1055 3.99577 14.3894 3.21893Z" fill="white"/>
</svg>
