<svg width="24" height="24" viewBox="0 0 24 24" fill="none" xmlns="http://www.w3.org/2000/svg">
<path d="M19.18 6.99988H8C6.89543 6.99988 6 7.89531 6 8.99988V17.8099C6 18.9144 6.89543 19.8099 8 19.8099H19.18C20.2846 19.8099 21.18 18.9144 21.18 17.8099V8.99988C21.18 7.89531 20.2846 6.99988 19.18 6.99988Z" stroke="white" stroke-width="1.3" stroke-miterlimit="10" stroke-linecap="round"/>
<path d="M5.82 16.9399H5C3.9 16.9399 3 16.03 3 14.9179V6.02189C3 4.90978 3.9 3.99988 5 3.99988H16.18C17.28 3.99988 18.18 4.90978 18.18 6.02189V6.79026" stroke="white" stroke-width="1.3" stroke-miterlimit="10" stroke-linecap="round"/>
<path d="M13.59 11.0099V15.8099" stroke="white" stroke-width="1.3" stroke-miterlimit="10" stroke-linecap="round"/>
<path d="M15.99 13.4099H11.19" stroke="white" stroke-width="1.3" stroke-miterlimit="10" stroke-linecap="round"/>
</svg>
