<svg width="16" height="17" viewBox="0 0 16 17" fill="none" xmlns="http://www.w3.org/2000/svg">
<mask id="mask0_1498_13733" style="mask-type:alpha" maskUnits="userSpaceOnUse" x="0" y="0" width="16" height="17">
<rect y="0.5" width="16" height="16" rx="8" fill="white"/>
</mask>
<g mask="url(#mask0_1498_13733)">
<path d="M16 0.5H0V16.5H16V0.5Z" fill="url(#paint0_linear_1498_13733)"/>
</g>
<path d="M12.1681 11.5424L11.3935 5.2793C11.3719 5.10104 11.2858 4.93692 11.1516 4.818C11.0174 4.69907 10.8444 4.63357 10.6654 4.6339H10.5661C10.5441 4.6339 10.5238 4.6339 10.5026 4.6339H10.4856C10.3587 4.64654 10.2373 4.69218 10.1334 4.76631C10.0295 4.84044 9.94674 4.94049 9.89325 5.05655L8.00975 9.1362L6.12624 5.05655C6.06854 4.93145 5.9769 4.82517 5.86179 4.74985C5.74669 4.67453 5.61277 4.63321 5.47535 4.63064H5.43142H5.33216C5.15239 4.62931 4.97841 4.69435 4.84337 4.81337C4.70834 4.93239 4.62168 5.09707 4.59991 5.27604L3.83186 11.5424C3.81893 11.6458 3.8281 11.7508 3.85875 11.8504C3.8894 11.9499 3.94083 12.0418 4.00964 12.1199C4.07844 12.1981 4.16303 12.2606 4.25779 12.3034C4.35255 12.3461 4.45531 12.3682 4.55923 12.3681H4.80331C4.9856 12.369 5.16166 12.3017 5.29708 12.1793C5.4325 12.0569 5.51754 11.8883 5.53556 11.7064L5.89436 8.12119L7.33038 11.1671C7.39311 11.2934 7.48973 11.3997 7.60938 11.474C7.72904 11.5483 7.86698 11.5876 8.00771 11.5876C8.14844 11.5876 8.28638 11.5483 8.40604 11.474C8.52569 11.3997 8.62231 11.2934 8.68504 11.1671L10.1064 8.14811L10.4628 11.708C10.4808 11.8899 10.5658 12.0586 10.7013 12.1809C10.8367 12.3033 11.0127 12.3706 11.195 12.3697H11.4391C11.5433 12.3701 11.6464 12.3482 11.7415 12.3054C11.8366 12.2626 11.9215 12.2 11.9905 12.1217C12.0595 12.0433 12.111 11.9511 12.1417 11.8512C12.1723 11.7514 12.1813 11.6461 12.1681 11.5424Z" fill="white"/>
<defs>
<linearGradient id="paint0_linear_1498_13733" x1="0.868406" y1="0.687824" x2="15.4052" y2="16.6425" gradientUnits="userSpaceOnUse">
<stop stop-color="#11CDAB"/>
<stop offset="1" stop-color="#CC3F9A"/>
</linearGradient>
</defs>
</svg>
