<svg width="24" height="24" viewBox="0 0 24 24" fill="none" xmlns="http://www.w3.org/2000/svg">
<path fill-rule="evenodd" clip-rule="evenodd" d="M6.38825 7.40781C6.00817 7.40781 5.70005 7.71593 5.70005 8.09601V17.626C5.70005 18.0061 6.00817 18.3142 6.38825 18.3142H17.6118C17.9919 18.3142 18.3 18.0061 18.3 17.626V8.09601C18.3 7.71593 17.9919 7.40781 17.6118 7.40781H6.38825ZM4.30005 8.09601C4.30005 6.94273 5.23497 6.00781 6.38825 6.00781H17.6118C18.7651 6.00781 19.7 6.94273 19.7 8.09601V17.626C19.7 18.7793 18.7651 19.7142 17.6118 19.7142H6.38825C5.23497 19.7142 4.30005 18.7793 4.30005 17.626V8.09601Z" fill="#536067"/>
<path fill-rule="evenodd" clip-rule="evenodd" d="M8.8731 4.2998C9.2597 4.2998 9.5731 4.61321 9.5731 4.9998V8.4998C9.5731 8.8864 9.2597 9.1998 8.8731 9.1998C8.4865 9.1998 8.1731 8.8864 8.1731 8.4998V4.9998C8.1731 4.61321 8.4865 4.2998 8.8731 4.2998Z" fill="#536067"/>
<path fill-rule="evenodd" clip-rule="evenodd" d="M15.1199 4.2998C15.5065 4.2998 15.8199 4.61321 15.8199 4.9998V8.4998C15.8199 8.8864 15.5065 9.1998 15.1199 9.1998C14.7333 9.1998 14.4199 8.8864 14.4199 8.4998V4.9998C14.4199 4.61321 14.7333 4.2998 15.1199 4.2998Z" fill="#536067"/>
<path fill-rule="evenodd" clip-rule="evenodd" d="M18.7432 12.0445H5.25684V10.6445H18.7432V12.0445Z" fill="#536067"/>
</svg>
