<svg width="24" height="24" viewBox="0 0 24 24" fill="none" xmlns="http://www.w3.org/2000/svg">
<g clip-path="url(#clip0_395_2836)">
<path d="M12 20C10.916 20 9.89333 19.524 9.19467 18.694C8.168 18.8113 7.11 18.424 6.34333 17.6573C5.57733 16.8907 5.19067 15.8307 5.28333 14.7493C4.476 14.1067 4 13.084 4 12C4 10.916 4.476 9.89333 5.30667 9.19467C5.19 8.17 5.57667 7.11 6.34333 6.34333C7.11 5.57667 8.168 5.188 9.25067 5.28333C9.89333 4.47667 10.916 4 12 4C13.084 4 14.1067 4.476 14.8053 5.306C15.8333 5.19067 16.89 5.576 17.6567 6.34267C18.4227 7.10933 18.8093 8.16933 18.7167 9.25067C19.524 9.89333 20 10.916 20 12C20 13.084 19.524 14.1067 18.6933 14.8053C18.81 15.83 18.4233 16.89 17.6567 17.6567C16.8893 18.4233 15.8293 18.8073 14.7493 18.7167C14.1067 19.5233 13.084 20 12 20ZM9.24867 17.384C9.62267 17.384 9.96933 17.5447 10.214 17.8347C10.6593 18.3633 11.31 18.6667 12 18.6667C12.69 18.6667 13.3407 18.3633 13.786 17.8347C14.0547 17.5153 14.446 17.354 14.8633 17.388C15.5527 17.446 16.226 17.2013 16.714 16.7133C17.2013 16.226 17.4473 15.5513 17.3887 14.8627C17.3527 14.4467 17.5153 14.054 17.8353 13.7847C18.3633 13.34 18.6667 12.6887 18.6667 11.9993C18.6667 11.31 18.3633 10.6587 17.8353 10.214C17.516 9.94533 17.3527 9.552 17.3887 9.136C17.4473 8.44733 17.202 7.77267 16.714 7.28533C16.226 6.798 15.5487 6.556 14.864 6.61067C14.4467 6.648 14.0547 6.48333 13.786 6.16467C13.3407 5.636 12.69 5.33267 12 5.33267C11.31 5.33267 10.6593 5.636 10.214 6.16467C9.94467 6.484 9.552 6.644 9.13667 6.61133C8.444 6.55133 7.774 6.798 7.286 7.286C6.79867 7.77333 6.55267 8.448 6.61133 9.13667C6.64733 9.55267 6.48467 9.94533 6.16467 10.2147C5.63667 10.6593 5.33333 11.3107 5.33333 12C5.33333 12.6893 5.63667 13.3407 6.16467 13.7853C6.484 14.054 6.64733 14.4473 6.61133 14.8633C6.55267 15.552 6.798 16.2267 7.286 16.714C7.774 17.2013 8.45467 17.444 9.136 17.3887C9.174 17.3853 9.21133 17.384 9.24867 17.384ZM12.534 14.09L15.6933 11.0447C15.958 10.7893 15.966 10.3667 15.71 10.102C15.4547 9.83733 15.0327 9.82933 14.7673 10.0847L11.5993 13.1387C11.3387 13.3993 10.918 13.3993 10.6393 13.122L9.12067 11.7107C8.85267 11.4607 8.43 11.4753 8.17867 11.7453C7.928 12.0147 7.94333 12.4367 8.21333 12.6873L9.71467 14.082C10.1053 14.4727 10.6193 14.668 11.132 14.668C11.642 14.668 12.1493 14.4753 12.5347 14.0907L12.534 14.09Z" fill="white"/>
</g>
<defs>
<clipPath id="clip0_395_2836">
<rect width="16" height="16" fill="white" transform="translate(4 4)"/>
</clipPath>
</defs>
</svg>
