<svg width="24" height="24" viewBox="0 0 24 24" fill="none" xmlns="http://www.w3.org/2000/svg">
<g clip-path="url(#clip0_165_1553)">
<path d="M4 9.33333L4 9.42C4.00283 9.71836 4.10468 10.0073 4.28953 10.2415C4.47439 10.4757 4.7318 10.6419 5.02133 10.714C5.30323 10.7912 5.55195 10.9588 5.72924 11.1912C5.90652 11.4236 6.00256 11.7077 6.00256 12C6.00256 12.2923 5.90652 12.5764 5.72924 12.8088C5.55195 13.0412 5.30323 13.2088 5.02133 13.286C4.7318 13.3581 4.47439 13.5243 4.28953 13.7585C4.10468 13.9927 4.00283 14.2816 4 14.58L4 14.6667C4.00106 15.5504 4.35259 16.3976 4.97748 17.0225C5.60237 17.6474 6.4496 17.9989 7.33333 18L18 18C18.5304 18 19.0391 17.7893 19.4142 17.4142C19.7893 17.0391 20 16.5304 20 16L20 14.58C19.9972 14.2816 19.8953 13.9927 19.7105 13.7585C19.5256 13.5243 19.2682 13.3581 18.9787 13.286C18.6968 13.2088 18.4481 13.0411 18.2708 12.8088C18.0935 12.5764 17.9974 12.2923 17.9974 12C17.9974 11.7077 18.0935 11.4236 18.2708 11.1912C18.4481 10.9588 18.6968 10.7912 18.9787 10.714C19.2682 10.6419 19.5256 10.4757 19.7105 10.2415C19.8953 10.0073 19.9972 9.71836 20 9.42L20 8C20 7.46957 19.7893 6.96086 19.4142 6.58579C19.0391 6.21071 18.5304 6 18 6L7.33333 6C6.4496 6.00106 5.60237 6.35259 4.97748 6.97748C4.35259 7.60237 4.00106 8.4496 4 9.33333H4ZM18.6667 8L18.6247 9.42867C18.0589 9.58525 17.5607 9.92412 17.2072 10.3927C16.8537 10.8613 16.6647 11.4335 16.6694 12.0204C16.6742 12.6074 16.8725 13.1764 17.2337 13.6392C17.5948 14.102 18.0985 14.4327 18.6667 14.58L18.6667 16C18.6667 16.1768 18.5964 16.3464 18.4714 16.4714C18.3464 16.5964 18.1768 16.6667 18 16.6667L15.3333 16.6667L15.3333 15.3333C15.3333 15.1565 15.2631 14.987 15.1381 14.8619C15.013 14.7369 14.8435 14.6667 14.6667 14.6667C14.4899 14.6667 14.3203 14.7369 14.1953 14.8619C14.0702 14.987 14 15.1565 14 15.3333L14 16.6667L7.33333 16.6667C6.8029 16.6667 6.29419 16.456 5.91912 16.0809C5.54405 15.7058 5.33333 15.1971 5.33333 14.6667L5.37533 14.5713C5.93762 14.4152 6.43336 14.0793 6.7869 13.6151C7.14044 13.1508 7.33235 12.5836 7.33333 12C7.3283 11.4086 7.1302 10.835 6.76917 10.3665C6.40815 9.89798 5.90396 9.56025 5.33333 9.40467L5.33333 9.33333C5.33333 8.8029 5.54405 8.29419 5.91912 7.91912C6.29419 7.54405 6.8029 7.33333 7.33333 7.33333L14 7.33333L14 8.66667C14 8.84348 14.0702 9.01305 14.1953 9.13807C14.3203 9.2631 14.4899 9.33333 14.6667 9.33333C14.8435 9.33333 15.013 9.2631 15.1381 9.13807C15.2631 9.01305 15.3333 8.84348 15.3333 8.66667L15.3333 7.33333L18 7.33333C18.1768 7.33333 18.3464 7.40357 18.4714 7.52859C18.5964 7.65362 18.6667 7.82319 18.6667 8Z" fill="white"/>
<path d="M14 11.3334L14 12.6667C14 12.8435 14.0702 13.0131 14.1953 13.1381C14.3203 13.2631 14.4899 13.3334 14.6667 13.3334C14.8435 13.3334 15.013 13.2631 15.1381 13.1381C15.2631 13.0131 15.3333 12.8435 15.3333 12.6667L15.3333 11.3334C15.3333 11.1566 15.2631 10.987 15.1381 10.862C15.013 10.7369 14.8435 10.6667 14.6667 10.6667C14.4899 10.6667 14.3203 10.7369 14.1953 10.862C14.0702 10.987 14 11.1566 14 11.3334Z" fill="white"/>
</g>
<defs>
<clipPath id="clip0_165_1553">
<rect width="16" height="16" fill="white" transform="translate(4 20) rotate(-90)"/>
</clipPath>
</defs>
</svg>
