<svg width="24" height="24" viewBox="0 0 24 24" fill="none" xmlns="http://www.w3.org/2000/svg">
<g clip-path="url(#clip0_435_2553)">
<path d="M13.5378 5.21884C14.1816 4.83256 14.916 4.623 15.6667 4.61133C16.8634 4.66332 17.9909 5.18683 18.8028 6.06748C19.6148 6.94814 20.0452 8.11435 20 9.31133C20 13.828 12.696 19.046 12.3853 19.266L12 19.5387L11.6147 19.266C11.304 19.0447 3.99999 13.828 3.99999 9.31133C3.95483 8.11435 4.38523 6.94814 5.19718 6.06748C6.00913 5.18683 7.13662 4.66332 8.33333 4.61133C9.08403 4.623 9.81835 4.83256 10.4622 5.21884C11.1059 5.60512 11.6364 6.15444 12 6.81133C12.3636 6.15444 12.894 5.60512 13.5378 5.21884Z" fill="#252E33"/>
</g>
<defs>
<clipPath id="clip0_435_2553">
<rect width="16" height="16" fill="white" transform="translate(4 4)"/>
</clipPath>
</defs>
</svg>
