<svg width="24" height="24" viewBox="0 0 24 24" fill="none" xmlns="http://www.w3.org/2000/svg">
<path d="M7.50011 11.342C7.8657 8.88153 10.1761 7.18041 12.6605 7.54249C13.5081 7.66601 14.3032 8.02421 14.9543 8.57581L14.3682 9.15625C14.1717 9.35085 14.1718 9.66633 14.3683 9.86088C14.4626 9.95425 14.5905 10.0067 14.7239 10.0068H17.031C17.3088 10.0068 17.5341 9.78369 17.5341 9.50852V7.22357C17.534 6.9484 17.3087 6.72539 17.0309 6.72543C16.8975 6.72546 16.7696 6.77793 16.6753 6.87131L16.0213 7.51902C13.5272 5.31721 9.70319 5.53465 7.48002 8.00468C6.69241 8.87973 6.1813 9.96439 6.01 11.1243C5.94246 11.5355 6.22428 11.9231 6.63947 11.99C6.67687 11.996 6.71465 11.9992 6.75254 11.9997C7.1324 11.9956 7.45125 11.7151 7.50011 11.342Z" fill="#69777E"/>
<path d="M17.2463 12C16.8665 12.0041 16.5476 12.2846 16.4987 12.6577C16.1332 15.1182 13.8228 16.8193 11.3384 16.4572C10.4908 16.3337 9.69565 15.9755 9.0446 15.4239L9.63068 14.8435C9.82712 14.6489 9.82707 14.3334 9.63056 14.1389C9.53626 14.0455 9.40835 13.993 9.275 13.993H6.96791C6.69007 13.993 6.46484 14.216 6.46484 14.4912V16.7762C6.46491 17.0513 6.69019 17.2743 6.96803 17.2743C7.10139 17.2743 7.2293 17.2218 7.3236 17.1284L7.97759 16.4807C10.471 18.6828 14.2948 18.466 16.5182 15.9965C17.3063 15.1213 17.8176 14.0363 17.9889 12.8759C18.0567 12.4648 17.7751 12.077 17.36 12.0098C17.3224 12.0037 17.2844 12.0004 17.2463 12Z" fill="#69777E"/>
</svg>
