<svg width="16" height="17" viewBox="0 0 16 17" fill="none" xmlns="http://www.w3.org/2000/svg">
<g clip-path="url(#clip0_2095_189479)">
<path d="M5.29893 15.026L12.2991 8.02586L8.97414 4.70091L1.97398 11.7011C1.87761 11.7976 1.80915 11.9183 1.77587 12.0506L1 16L4.94865 15.2241C5.08123 15.191 5.20251 15.1224 5.29893 15.026ZM14.5589 5.76604C14.8413 5.48352 15 5.10039 15 4.70091C15 4.30143 14.8413 3.9183 14.5589 3.63579L13.3642 2.4411C13.0817 2.15866 12.6986 2 12.2991 2C11.8996 2 11.5165 2.15866 11.234 2.4411L10.0393 3.63579L13.3642 6.96073L14.5589 5.76604Z" fill="white"/>
</g>
<defs>
<clipPath id="clip0_2095_189479">
<rect width="16" height="16" fill="white" transform="translate(0 0.5)"/>
</clipPath>
</defs>
</svg>
