<svg width="24" height="25" viewBox="0 0 24 25" fill="none" xmlns="http://www.w3.org/2000/svg">
<path d="M12 3.92805C12.5214 3.92805 13.0428 3.98199 13.5552 4.08088C13.5912 4.08088 13.6181 4.10785 13.6271 4.14381L14.1845 5.83392C14.2654 6.06766 14.4362 6.25645 14.652 6.36433C14.9666 6.50817 15.2633 6.68797 15.551 6.87676C15.7038 6.98464 15.8836 7.03858 16.0634 7.03858C16.1263 7.03858 16.1893 7.03858 16.2432 7.0206L18.0052 6.661C18.0052 6.661 18.0592 6.66999 18.0772 6.69696C18.7694 7.48807 19.2908 8.39606 19.6324 9.39395C19.6414 9.42991 19.6324 9.46587 19.6144 9.49284L18.4278 10.8234C18.266 11.0121 18.185 11.2549 18.203 11.4976C18.23 11.8392 18.23 12.1808 18.203 12.5225C18.185 12.7652 18.266 13.0079 18.4278 13.1967L19.6055 14.5182C19.6055 14.5182 19.6414 14.5812 19.6234 14.6171C19.2818 15.615 18.7604 16.514 18.0772 17.3051C18.0592 17.3231 18.0322 17.3411 17.9873 17.3411C17.9873 17.3411 17.9873 17.3411 17.9783 17.3411L16.2342 16.9815C16.1713 16.9725 16.1174 16.9635 16.0544 16.9635C15.8746 16.9635 15.6948 17.0174 15.542 17.1253C15.2543 17.3231 14.9576 17.4939 14.643 17.6377C14.4183 17.7456 14.2474 17.9344 14.1755 18.1682L13.6181 19.8583C13.6181 19.8583 13.5822 19.9122 13.5462 19.9212C13.0338 20.0201 12.5124 20.074 11.991 20.074C11.4695 20.074 10.9481 20.0201 10.4357 19.9212C10.3997 19.9212 10.3728 19.8942 10.3638 19.8583L9.8064 18.1682C9.72549 17.9344 9.55468 17.7456 9.33892 17.6377C9.02427 17.4939 8.7276 17.3141 8.43992 17.1253C8.28709 17.0174 8.1073 16.9635 7.9275 16.9635C7.86457 16.9635 7.80164 16.9635 7.7477 16.9815L5.98566 17.3411C5.98566 17.3411 5.93172 17.3321 5.91374 17.3051C5.22152 16.514 4.7001 15.606 4.35848 14.6081C4.34949 14.5722 4.35848 14.5362 4.37646 14.5092L5.56314 13.1787C5.72496 12.9899 5.80587 12.7472 5.78789 12.5045C5.76092 12.1629 5.76092 11.8212 5.78789 11.4796C5.80587 11.2369 5.72496 10.9942 5.56314 10.8054L4.38545 9.48385C4.38545 9.48385 4.34949 9.42092 4.36747 9.38496C4.70909 8.38707 5.23051 7.48807 5.91374 6.69696C5.93172 6.67898 5.95869 6.661 6.00364 6.661C6.00364 6.661 6.00364 6.661 6.01263 6.661L7.75669 7.0206C7.81962 7.02959 7.87356 7.03858 7.93649 7.03858C8.11629 7.03858 8.29609 6.98464 8.44891 6.87676C8.73659 6.67898 9.03326 6.50817 9.34791 6.36433C9.57266 6.25645 9.74347 6.06766 9.81539 5.83392L10.3728 4.14381C10.3728 4.14381 10.4087 4.08987 10.4447 4.08088C10.9571 3.98199 11.4785 3.92805 12 3.92805ZM12 3.02905C11.4246 3.02905 10.8402 3.08299 10.2739 3.19986C9.92327 3.27178 9.63559 3.5235 9.51872 3.86512L8.96134 5.55523C8.60174 5.72604 8.26012 5.92382 7.93649 6.14857L6.19243 5.78897C6.1295 5.77099 6.05758 5.77099 5.99465 5.77099C5.70698 5.77099 5.43728 5.89685 5.2395 6.11261C4.47535 6.99363 3.891 8.00949 3.51342 9.10627C3.39655 9.44789 3.46847 9.82547 3.7112 10.0952L4.89788 11.4257C4.86192 11.8212 4.86192 12.2168 4.89788 12.6034L3.7112 13.9339C3.47746 14.2036 3.39655 14.5812 3.51342 14.9228C3.891 16.0196 4.47535 17.0354 5.2395 17.9164C5.42829 18.1322 5.70698 18.2581 5.99465 18.2581C6.05758 18.2581 6.1295 18.2581 6.19243 18.2401L7.93649 17.8805C8.26012 18.1052 8.60174 18.303 8.96134 18.4738L9.51872 20.1639C9.63559 20.5055 9.92327 20.7573 10.2739 20.8292C10.8402 20.9371 11.4246 21 12 21C12.5753 21 13.1597 20.9461 13.726 20.8292C14.0766 20.7573 14.3643 20.5055 14.4812 20.1639L15.0386 18.4738C15.3982 18.303 15.7398 18.1052 16.0634 17.8805L17.8075 18.2401C17.8704 18.2581 17.9423 18.2581 18.0052 18.2581C18.2929 18.2581 18.5626 18.1322 18.7604 17.9164C19.5245 17.0354 20.1089 16.0196 20.4865 14.9228C20.6033 14.5812 20.5314 14.2036 20.2887 13.9339L19.102 12.6034C19.138 12.2078 19.138 11.8122 19.102 11.4257L20.2887 10.0952C20.5224 9.82547 20.6033 9.44789 20.4865 9.10627C20.1089 8.00949 19.5245 6.99363 18.7604 6.11261C18.5716 5.89685 18.2929 5.77099 18.0052 5.77099C17.9423 5.77099 17.8704 5.77099 17.8075 5.78897L16.0634 6.14857C15.7398 5.92382 15.3982 5.72604 15.0386 5.55523L14.4812 3.86512C14.3643 3.5235 14.0766 3.27178 13.726 3.19986C13.1597 3.09198 12.5753 3.02905 12 3.02905Z" fill="#69777E"/>
<path d="M12 15.148C13.7378 15.148 15.1465 13.7392 15.1465 12.0015C15.1465 10.2637 13.7378 8.85498 12 8.85498C10.2622 8.85498 8.85352 10.2637 8.85352 12.0015C8.85352 13.7392 10.2622 15.148 12 15.148Z" stroke="#69777E" stroke-linecap="round" stroke-linejoin="round"/>
</svg>
