<svg width="18" height="18" viewBox="0 0 18 18" fill="none" xmlns="http://www.w3.org/2000/svg">
<path d="M9.16128 5.62136C9.26519 5.73002 9.40575 5.79101 9.55227 5.79101C9.69879 5.79101 9.83936 5.73002 9.94327 5.62136L11.9343 3.50363V15.4166C11.9343 15.5713 11.9927 15.7197 12.0967 15.8291C12.2008 15.9385 12.3418 16 12.4889 16C12.636 16 12.7771 15.9385 12.8811 15.8291C12.9851 15.7197 13.0435 15.5713 13.0435 15.4166V3.50946L15.0512 5.62136C15.1027 5.67604 15.1641 5.71944 15.2317 5.74906C15.2993 5.77868 15.3717 5.79393 15.445 5.79393C15.5182 5.79393 15.5907 5.77868 15.6582 5.74906C15.7258 5.71944 15.7872 5.67604 15.8387 5.62136C15.942 5.51205 16 5.36419 16 5.21006C16 5.05594 15.942 4.90807 15.8387 4.79877L13.6702 2.51185C13.3583 2.1841 12.9354 2 12.4945 2C12.0535 2 11.6307 2.1841 11.3187 2.51185L9.16128 4.79877C9.05798 4.90807 9 5.05594 9 5.21006C9 5.36419 9.05798 5.51205 9.16128 5.62136Z" fill="#252E33"/>
<path d="M8.83872 12.3786C8.73481 12.27 8.59425 12.209 8.44773 12.209C8.30121 12.209 8.16064 12.27 8.05673 12.3786L6.0657 14.4964L6.0657 2.5834C6.0657 2.42867 6.00726 2.28028 5.90326 2.17087C5.79925 2.06146 5.65818 2 5.51109 2C5.364 2 5.22293 2.06146 5.11893 2.17087C5.01492 2.28028 4.95649 2.42867 4.95649 2.5834L4.95649 14.4905L2.94881 12.3786C2.89726 12.324 2.83592 12.2806 2.76833 12.2509C2.70075 12.2213 2.62826 12.2061 2.55504 12.2061C2.48183 12.2061 2.40934 12.2213 2.34176 12.2509C2.27417 12.2806 2.21283 12.324 2.16127 12.3786C2.05798 12.4879 2 12.6358 2 12.7899C2 12.9441 2.05798 13.0919 2.16127 13.2012L4.32978 15.4882C4.64175 15.8159 5.06463 16 5.50555 16C5.94646 16 6.36934 15.8159 6.68131 15.4882L8.83872 13.2012C8.94202 13.0919 9 12.9441 9 12.7899C9 12.6358 8.94202 12.4879 8.83872 12.3786Z" fill="#252E33"/>
</svg>
