<svg width="12" height="13" viewBox="0 0 12 13" fill="none" xmlns="http://www.w3.org/2000/svg">
<path d="M3.68479 11.6652L9.68493 5.66502L6.83498 2.81507L0.834841 8.81521C0.752238 8.89791 0.69356 9.00144 0.665032 9.11479L0 12.5L3.38456 11.835C3.4982 11.8066 3.60215 11.7478 3.68479 11.6652ZM11.6219 3.72803C11.864 3.48588 12 3.15748 12 2.81507C12 2.47266 11.864 2.14426 11.6219 1.9021L10.5979 0.878082C10.3557 0.635996 10.0273 0.5 9.68493 0.5C9.34252 0.5 9.01412 0.635996 8.77197 0.878082L7.74794 1.9021L10.5979 4.75205L11.6219 3.72803Z" fill="#374248"/>
</svg>
