<svg width="24" height="24" viewBox="0 0 24 24" fill="none" xmlns="http://www.w3.org/2000/svg">
<g clip-path="url(#clip0_435_2543)">
<path d="M16.8887 13.7782C16.3846 13.7786 15.8882 13.9016 15.4423 14.1367C14.9964 14.3718 14.6145 14.7118 14.3293 15.1275L9.99 13.1682C10.2982 12.4239 10.2994 11.588 9.99333 10.8428L14.3267 8.8735C14.7492 9.48467 15.3769 9.92414 16.0957 10.1122C16.8146 10.3003 17.577 10.2244 18.2447 9.8985C18.9125 9.57256 19.4413 9.0181 19.7352 8.33568C20.0292 7.65325 20.0688 6.88808 19.8469 6.17895C19.625 5.46982 19.1563 4.8637 18.5258 4.47054C17.8953 4.07737 17.1448 3.92321 16.4104 4.03602C15.6759 4.14882 15.0063 4.52111 14.5228 5.08537C14.0394 5.64962 13.7742 6.36846 13.7753 7.1115C13.7782 7.28736 13.796 7.46267 13.8287 7.6355L9.222 9.72883C8.77956 9.31431 8.22567 9.03806 7.62838 8.93401C7.03109 8.82996 6.41641 8.90264 5.85987 9.14314C5.30332 9.38363 4.82915 9.78146 4.49559 10.2877C4.16204 10.794 3.98364 11.3867 3.98231 11.993C3.98098 12.5993 4.15677 13.1927 4.48809 13.7005C4.81942 14.2082 5.29184 14.6081 5.84733 14.8511C6.40281 15.094 7.01716 15.1694 7.6149 15.068C8.21264 14.9666 8.76774 14.6927 9.212 14.2802L13.8307 16.3655C13.7986 16.5382 13.781 16.7132 13.778 16.8888C13.7779 17.5043 13.9602 18.1059 14.3021 18.6176C14.6439 19.1294 15.1298 19.5283 15.6984 19.7639C16.2669 19.9994 16.8926 20.0611 17.4962 19.9411C18.0998 19.8211 18.6542 19.5247 19.0894 19.0895C19.5245 18.6544 19.8209 18.0999 19.9409 17.4963C20.0609 16.8927 19.9993 16.2671 19.7637 15.6985C19.5281 15.13 19.1292 14.6441 18.6175 14.3022C18.1057 13.9604 17.5041 13.778 16.8887 13.7782ZM16.8887 5.3335C17.2403 5.33337 17.5842 5.43753 17.8766 5.63282C18.1691 5.82811 18.3971 6.10575 18.5318 6.43063C18.6665 6.7555 18.7018 7.11302 18.6332 7.45796C18.5647 7.8029 18.3954 8.11977 18.1468 8.3685C17.8982 8.61722 17.5814 8.78663 17.2364 8.85529C16.8915 8.92394 16.534 8.88877 16.2091 8.75422C15.8841 8.61967 15.6064 8.39178 15.411 8.09937C15.2156 7.80697 15.1113 7.46318 15.1113 7.1115C15.1117 6.64017 15.299 6.18823 15.6322 5.85489C15.9655 5.52154 16.4173 5.33403 16.8887 5.3335ZM7.11133 13.7782C6.75965 13.7783 6.41582 13.6741 6.12334 13.4788C5.83087 13.2836 5.60287 13.0059 5.4682 12.681C5.33352 12.3562 5.29822 11.9986 5.36674 11.6537C5.43527 11.3088 5.60456 10.9919 5.85319 10.7432C6.10182 10.4944 6.41863 10.325 6.76355 10.2564C7.10846 10.1877 7.46599 10.2229 7.79092 10.3574C8.11585 10.492 8.39357 10.7199 8.58897 11.0123C8.78437 11.3047 8.88866 11.6485 8.88866 12.0002C8.88813 12.4714 8.70073 12.9233 8.36755 13.2566C8.03437 13.5899 7.58261 13.7775 7.11133 13.7782ZM16.8887 18.6668C16.537 18.6668 16.1932 18.5626 15.9009 18.3672C15.6085 18.1718 15.3806 17.8941 15.246 17.5692C15.1114 17.2444 15.0762 16.8869 15.1448 16.542C15.2134 16.1971 15.3828 15.8803 15.6314 15.6316C15.8801 15.3829 16.1969 15.2136 16.5418 15.145C16.8867 15.0764 17.2442 15.1116 17.5691 15.2462C17.894 15.3807 18.1716 15.6086 18.367 15.901C18.5624 16.1934 18.6667 16.5372 18.6667 16.8888C18.6663 17.3603 18.4789 17.8123 18.1455 18.1457C17.8121 18.479 17.3601 18.6665 16.8887 18.6668Z" fill="#252E33"/>
</g>
<defs>
<clipPath id="clip0_435_2543">
<rect width="16" height="16" fill="white" transform="translate(4 4)"/>
</clipPath>
</defs>
</svg>
