<svg width="24" height="25" viewBox="0 0 24 25" fill="none" xmlns="http://www.w3.org/2000/svg">
<path d="M16.1042 20.7701H7.30424C6.44424 20.7701 5.68424 20.2101 5.43424 19.3801L3.09424 11.5701C2.89424 10.9001 3.00424 10.1401 3.50424 9.65008C3.85424 9.30008 4.34424 9.08008 4.88424 9.08008H18.5242C19.0642 9.08008 19.5542 9.30008 19.9042 9.65008C20.3942 10.1401 20.5142 10.9001 20.3142 11.5701L17.9742 19.3801C17.7242 20.2001 16.9642 20.7701 16.1042 20.7701Z" stroke="white" stroke-width="1.3" stroke-miterlimit="10"/>
<path d="M8.33423 11.06V7.87C8.33423 6.01 9.84423 4.5 11.7042 4.5C13.5642 4.5 15.0742 6.01 15.0742 7.87V11.06" stroke="white" stroke-width="1.3" stroke-miterlimit="10" stroke-linecap="round"/>
</svg>
