<svg width="24" height="24" viewBox="0 0 24 24" fill="none" xmlns="http://www.w3.org/2000/svg">
<g clip-path="url(#clip0_558_4021)">
<path d="M10.5853 16.0813C11.3661 16.8627 12.6325 16.8631 13.4138 16.0822C13.4141 16.0819 13.4144 16.0817 13.4147 16.0813L15.5553 13.9407C15.8023 13.6676 15.781 13.246 15.508 12.9991C15.2537 12.7692 14.8665 12.7696 14.6127 13L12.662 14.9513L12.6667 4.66669C12.6666 4.29847 12.3682 4 12 4C11.6318 4 11.3333 4.29847 11.3333 4.66666L11.3273 14.9387L9.38734 13C9.12684 12.7397 8.70465 12.7398 8.44434 13.0003C8.18403 13.2608 8.18418 13.683 8.44468 13.9433L10.5853 16.0813Z" fill="#B7C5C8"/>
<path d="M19.3333 14.667C18.9652 14.667 18.6667 14.9655 18.6667 15.3336V18.0003C18.6667 18.3685 18.3682 18.667 18 18.667H6C5.63181 18.667 5.33334 18.3685 5.33334 18.0003V15.3337C5.33334 14.9655 5.03487 14.667 4.66669 14.667C4.29847 14.667 4 14.9655 4 15.3337V18.0003C4 19.1049 4.89544 20.0003 6 20.0003H18C19.1046 20.0003 20 19.1049 20 18.0003V15.3337C20 14.9655 19.7015 14.667 19.3333 14.667Z" fill="#B7C5C8"/>
</g>
<defs>
<clipPath id="clip0_558_4021">
<rect width="16" height="16" fill="white" transform="translate(4 4)"/>
</clipPath>
</defs>
</svg>
