<svg width="24" height="24" viewBox="0 0 24 24" fill="none" xmlns="http://www.w3.org/2000/svg">
<g clip-path="url(#clip0_435_2545)">
<path d="M15.6667 4.61133C14.916 4.623 14.1816 4.83256 13.5378 5.21884C12.894 5.60512 12.3636 6.15444 12 6.81133C11.6364 6.15444 11.1059 5.60512 10.4622 5.21884C9.81835 4.83256 9.08403 4.623 8.33333 4.61133C7.13662 4.66332 6.00913 5.18683 5.19718 6.06748C4.38523 6.94814 3.95483 8.11435 3.99999 9.31133C3.99999 13.828 11.304 19.0447 11.6147 19.266L12 19.5387L12.3853 19.266C12.696 19.046 20 13.828 20 9.31133C20.0452 8.11435 19.6148 6.94814 18.8028 6.06748C17.9909 5.18683 16.8634 4.66332 15.6667 4.61133ZM12 17.8973C9.83133 16.2773 5.33333 12.2973 5.33333 9.31133C5.28775 8.46781 5.57757 7.64048 6.13957 7.00979C6.70157 6.37911 7.49015 5.99623 8.33333 5.94466C9.1765 5.99623 9.96509 6.37911 10.5271 7.00979C11.0891 7.64048 11.3789 8.46781 11.3333 9.31133H12.6667C12.6211 8.46781 12.9109 7.64048 13.4729 7.00979C14.0349 6.37911 14.8235 5.99623 15.6667 5.94466C16.5098 5.99623 17.2984 6.37911 17.8604 7.00979C18.4224 7.64048 18.7122 8.46781 18.6667 9.31133C18.6667 12.2987 14.1687 16.2773 12 17.8973Z" fill="#252E33"/>
</g>
<defs>
<clipPath id="clip0_435_2545">
<rect width="16" height="16" fill="white" transform="translate(4 4)"/>
</clipPath>
</defs>
</svg>
