<svg width="25" height="24" viewBox="0 0 25 24" fill="none" xmlns="http://www.w3.org/2000/svg">
<path d="M11.0395 11.0824C12.9952 11.0824 14.5807 9.4969 14.5807 7.54121C14.5807 5.58553 12.9952 4 11.0395 4C9.08382 4 7.49829 5.58553 7.49829 7.54121C7.49934 9.49655 9.08417 11.0814 11.0395 11.0824ZM11.0395 4.83651C12.5334 4.83651 13.7442 6.04735 13.7442 7.54121C13.7442 9.03508 12.5334 10.2459 11.0395 10.2459C9.54564 10.2459 8.3348 9.03508 8.3348 7.54121C8.3355 6.0477 9.54599 4.8372 11.0395 4.83651Z" fill="#69777E" stroke="#69777E" stroke-width="0.4"/>
<path d="M13.3076 12.3732C13.3846 12.1554 13.2706 11.9163 13.0528 11.8389C9.90542 10.7288 6.45413 12.3805 5.34401 15.5279C5.11676 16.1727 5.00035 16.851 5 17.5344C5 17.7655 5.18717 17.9527 5.41825 17.9527C5.64934 17.9527 5.83651 17.7655 5.83651 17.5344C5.8372 14.6597 8.16827 12.3296 11.0431 12.3303C11.6328 12.3303 12.218 12.4307 12.7739 12.6269C12.9914 12.7036 13.2298 12.5903 13.3076 12.3732Z" fill="#69777E" stroke="#69777E" stroke-width="0.4"/>
<path d="M16.0363 14.599C15.1036 14.599 14.3479 15.3557 14.3483 16.288C14.3483 17.2207 15.105 17.9764 16.0373 17.976C16.9697 17.976 17.7253 17.2197 17.7253 16.2873C17.7246 15.3546 16.9686 14.599 16.0363 14.5986V14.599ZM16.0363 17.1399C15.5657 17.1399 15.1844 16.7579 15.1848 16.2873C15.1851 15.8168 15.5668 15.4355 16.0373 15.4358C16.5079 15.4358 16.8888 15.8175 16.8888 16.288C16.8888 16.7586 16.5068 17.1402 16.0363 17.1402V17.1399Z" fill="#69777E" stroke="#69777E" stroke-width="0.4"/>
<path d="M19.6321 16.5243C19.6426 16.3658 19.6426 16.2068 19.6321 16.0482L19.9667 15.2323C20.0054 15.1382 20.0085 15.0333 19.9758 14.9374C19.8008 14.4268 19.5286 13.9552 19.1738 13.5481C19.1068 13.4718 19.0145 13.4223 18.9138 13.4087L18.0382 13.2916C17.9061 13.2031 17.7681 13.1236 17.6255 13.0535L17.0867 12.3544C17.0246 12.2738 16.9354 12.2188 16.8357 12.1993C16.3063 12.095 15.7615 12.095 15.2317 12.1993C15.132 12.2188 15.0428 12.2738 14.9808 12.3544L14.4416 13.0542C14.2987 13.1243 14.161 13.2038 14.0289 13.2923L13.1541 13.4087C13.0533 13.4223 12.961 13.4718 12.894 13.5481C12.5396 13.9549 12.267 14.4268 12.092 14.9374C12.0593 15.0336 12.0624 15.1385 12.1011 15.2323L12.4357 16.0493C12.4252 16.2079 12.4252 16.3668 12.4357 16.5254L12.1011 17.3413C12.0624 17.4354 12.0593 17.5404 12.092 17.6362C12.267 18.1468 12.5392 18.6184 12.894 19.0255C12.961 19.1018 13.0533 19.1517 13.1541 19.1649L14.0296 19.282C14.1617 19.3706 14.2997 19.45 14.4423 19.5201L14.9811 20.2193C15.0432 20.2998 15.1324 20.3549 15.2321 20.3744C15.7615 20.4786 16.3063 20.4786 16.8361 20.3744C16.9358 20.3549 17.025 20.2998 17.087 20.2193L17.6262 19.5194C17.7691 19.4493 17.9068 19.3699 18.0389 19.2813L18.9138 19.1649C19.0145 19.1517 19.1068 19.1018 19.1738 19.0255C19.5289 18.6188 19.8018 18.1472 19.9775 17.6362C20.0103 17.54 20.0071 17.4351 19.9685 17.3413L19.6321 16.5243ZM18.644 18.357L17.8305 18.4685C17.7629 18.4776 17.6987 18.503 17.643 18.5428C17.499 18.6449 17.3457 18.7334 17.185 18.807C17.1229 18.8348 17.0686 18.8777 17.0271 18.9317L16.5252 19.5821C16.2007 19.6306 15.871 19.6306 15.5465 19.5821L15.0446 18.9317C15.0031 18.8777 14.9487 18.8348 14.8867 18.807C14.726 18.7334 14.573 18.6449 14.4287 18.5428C14.3733 18.503 14.3088 18.4776 14.2412 18.4685L13.4277 18.357C13.2234 18.1001 13.0586 17.8143 12.938 17.5093L13.2503 16.7499C13.276 16.6868 13.2865 16.6185 13.2799 16.5508C13.2631 16.3752 13.2631 16.1981 13.2799 16.0221C13.2865 15.9545 13.2764 15.8858 13.2503 15.8231L12.9373 15.0639C13.0579 14.7586 13.2227 14.4732 13.427 14.2163L14.2405 14.1047C14.3081 14.0957 14.3726 14.0702 14.428 14.0305C14.5719 13.9284 14.7253 13.8399 14.886 13.7663C14.948 13.7384 15.0024 13.6956 15.0439 13.6415L15.5458 12.9911C15.8703 12.9427 16.2 12.9427 16.5245 12.9911L17.0264 13.6415C17.0679 13.6956 17.1222 13.7384 17.1843 13.7663C17.345 13.8399 17.498 13.9284 17.6423 14.0305C17.6977 14.0702 17.7622 14.0957 17.8298 14.1047L18.6433 14.2163C18.8475 14.4732 19.0124 14.759 19.133 15.0639L18.8207 15.8234C18.7949 15.8865 18.7844 15.9548 18.7911 16.0224C18.8078 16.1981 18.8078 16.3752 18.7911 16.5512C18.7844 16.6188 18.7946 16.6875 18.8207 16.7502L19.1337 17.5093C19.0131 17.8147 18.8482 18.1001 18.644 18.357Z" fill="#69777E" stroke="#69777E" stroke-width="0.4"/>
</svg>
