<svg width="24" height="24" viewBox="0 0 24 24" fill="none" xmlns="http://www.w3.org/2000/svg">
<path d="M12 7.00391C9.49745 7.00391 7.45642 9.02568 7.45642 11.5046C7.45642 13.9836 9.49745 16.0054 12 16.0054C14.5026 16.0054 16.5333 13.9836 16.5436 11.5046C16.5436 9.02568 14.5026 7.00391 12 7.00391ZM12 15.0097C10.0513 15.0097 8.46155 13.435 8.46155 11.5046C8.46155 9.5743 10.0513 7.99955 12 7.99955C13.9487 7.99955 15.5385 9.5743 15.5385 11.5046C15.5385 13.435 13.9487 15.0097 12 15.0097Z" fill="black"/>
<path d="M20.9436 13.6488L20.6154 13.4557C20.2154 13.2119 19.9897 12.7649 20.0513 12.3077C20.0821 12.0537 20.0923 11.7794 20.0923 11.5051C20.0923 11.2308 20.0821 10.9565 20.0513 10.7025C19.9897 10.2554 20.2051 9.79826 20.6051 9.56459L20.9436 9.37155C21.9692 8.78229 22.3179 7.48186 21.7333 6.46589L21.2923 5.70392C20.6974 4.68795 19.3744 4.34253 18.3487 4.92163L18.0103 5.11466C17.6 5.33817 17.1077 5.30769 16.7385 5.02322C16.2769 4.69811 15.7744 4.41364 15.2513 4.17997C14.8308 4.00726 14.5436 3.60087 14.5333 3.13353C14.5333 1.95501 13.5692 1 12.3795 1H11.641C10.4513 1 9.48718 1.95501 9.48718 3.13353C9.48718 3.60087 9.18974 4.00726 8.75897 4.17997C8.24615 4.40348 7.74359 4.68795 7.27179 5.02322C6.91282 5.29753 6.41026 5.33817 6.01026 5.11466L5.67179 4.92163C4.64615 4.33237 3.32308 4.68795 2.72821 5.70392L2.29744 6.45573C1.70256 7.4717 2.06154 8.78229 3.08718 9.36139L3.41538 9.55443C3.81538 9.79826 4.03077 10.2453 3.96923 10.7025C3.93846 10.9666 3.92821 11.2409 3.92821 11.5051C3.92821 11.7692 3.93846 12.0435 3.96923 12.3179C4.03077 12.7649 3.81538 13.2221 3.41538 13.4557L3.07692 13.6488C2.58462 13.9332 2.22564 14.3904 2.07179 14.939C1.92821 15.4877 2 16.0668 2.28718 16.5544L2.72821 17.3164C3.32308 18.3324 4.64615 18.6778 5.67179 18.0987L6.01026 17.9057C6.18462 17.8041 6.38974 17.7634 6.57436 17.7634C6.82051 17.7634 7.06667 17.8447 7.28205 17.9971C7.74359 18.3222 8.24615 18.6067 8.76923 18.8403C9.18974 19.0131 9.47692 19.4194 9.48718 19.8868C9.48718 21.0653 10.4513 22.0203 11.641 22.0203H12.3795C13.559 22.0203 14.5231 21.0653 14.5333 19.8868C14.5333 19.4194 14.8308 19.0131 15.2615 18.8403C15.7744 18.6168 16.2769 18.3324 16.7487 17.9971C17.1077 17.7228 17.6103 17.6923 18.0103 17.9057L18.3487 18.0987C19.3744 18.688 20.6872 18.3324 21.2821 17.3164L21.7231 16.5544C22.0103 16.0668 22.0821 15.4877 21.9385 14.939C21.7949 14.3904 21.4359 13.9332 20.9333 13.6488H20.9436ZM20.8615 16.0668L20.4205 16.8287C20.1026 17.3672 19.4051 17.5602 18.8513 17.2453L18.5128 17.0522C17.7744 16.6357 16.841 16.6865 16.1538 17.1945C15.7436 17.4891 15.3128 17.7329 14.8513 17.9361C14.0513 18.2714 13.5385 19.0435 13.5385 19.897C13.5385 20.5167 13.0256 21.0348 12.3897 21.0348H11.6513C11.0154 21.0348 10.5026 20.5269 10.5026 19.897C10.5026 19.0435 9.97949 18.2714 9.18974 17.9361C8.7282 17.7329 8.28718 17.4891 7.88718 17.1945C7.50769 16.9202 7.05641 16.7779 6.58461 16.7779C6.21538 16.7779 5.85641 16.8694 5.5282 17.0522L5.18974 17.2453C4.6359 17.5602 3.93846 17.3672 3.62051 16.8287L3.17949 16.0668C2.86154 15.5283 3.05641 14.8273 3.6 14.5123L3.92821 14.3193C4.66667 13.8926 5.07692 13.0595 4.98462 12.2163C4.95385 11.9826 4.94359 11.7489 4.94359 11.5152C4.94359 11.2816 4.94359 11.0479 4.97436 10.8142C5.07692 9.97097 4.65641 9.13788 3.91795 8.71118L3.58974 8.51814C3.04615 8.20319 2.85128 7.51234 3.16923 6.96372L3.61026 6.20174C3.7641 5.93759 4.02051 5.74456 4.30769 5.67344C4.59487 5.60232 4.91282 5.64296 5.17949 5.79536L5.50769 5.97823C6.24615 6.39478 7.17949 6.34398 7.86667 5.83599C8.27692 5.54136 8.71795 5.29753 9.16923 5.09434C9.95897 4.75907 10.4821 3.98694 10.4821 3.13353C10.4821 2.50363 10.9949 1.99565 11.6308 1.99565H12.3692C13.0051 1.99565 13.5179 2.50363 13.5179 3.13353C13.5179 3.98694 14.041 4.75907 14.8308 5.09434C15.2923 5.29753 15.7333 5.54136 16.1333 5.83599C16.8205 6.33382 17.7436 6.39478 18.4923 5.97823L18.8205 5.7852C19.0872 5.6328 19.3949 5.59216 19.6923 5.67344C19.9897 5.75472 20.2359 5.93759 20.3897 6.20174L20.8308 6.96372C21.1487 7.50218 20.9538 8.20319 20.4103 8.51814L20.0821 8.71118C19.3436 9.14804 18.9333 9.97097 19.0256 10.8142C19.0564 11.0479 19.0667 11.2816 19.0667 11.5152C19.0667 11.7489 19.0564 11.9826 19.0256 12.2163C18.9231 13.0595 19.3436 13.8926 20.0821 14.3193L20.4103 14.5022C20.9538 14.8171 21.1487 15.508 20.8308 16.0566L20.8615 16.0668Z" fill="black" stroke="black" stroke-width="0.1"/>
</svg>
