<svg width="27" height="27" viewBox="0 0 27 27" fill="none" xmlns="http://www.w3.org/2000/svg">
<path d="M4.99997 20.1981L4.99998 20.1985L4.99997 20.1981ZM5.00085 20.2148C5.0003 20.2066 5.00008 20.2013 5 20.199V6.70312H22V20.1989C21.9999 20.2013 21.9997 20.2066 21.9992 20.2148C21.998 20.2323 21.9953 20.2628 21.9894 20.3043C21.9775 20.3874 21.9526 20.5141 21.9007 20.67C21.7973 20.9802 21.5854 21.4107 21.1464 21.8496C20.7075 22.2885 20.277 22.5004 19.9669 22.6038C19.8109 22.6558 19.6843 22.6807 19.6012 22.6925C19.5597 22.6985 19.5292 22.7011 19.5117 22.7023C19.5035 22.7028 19.4981 22.703 19.4958 22.7031H7.50419C7.50185 22.703 7.49651 22.7028 7.48834 22.7023C7.47079 22.7011 7.44034 22.6985 7.39884 22.6925C7.31573 22.6807 7.18906 22.6558 7.03311 22.6038C6.72297 22.5004 6.29247 22.2885 5.85355 21.8496C5.41463 21.4107 5.20272 20.9802 5.09934 20.67C5.04736 20.5141 5.02247 20.3874 5.0106 20.3043C5.00467 20.2628 5.00202 20.2323 5.00085 20.2148Z" stroke="black" stroke-linecap="round" stroke-linejoin="round"/>
<path fill-rule="evenodd" clip-rule="evenodd" d="M2 6.70312C2 6.42698 2.22386 6.20312 2.5 6.20312L24.5 6.20312C24.7761 6.20312 25 6.42698 25 6.70312C25 6.97927 24.7761 7.20312 24.5 7.20312L2.5 7.20312C2.22386 7.20312 2 6.97927 2 6.70312Z" fill="black"/>
<path d="M11.5 18.2031V13.7031L15.5 18.2031V13.7031M9.5 10.2031H17.5" stroke="black" stroke-linecap="round" stroke-linejoin="round"/>
</svg>
