<svg width="12" height="12" viewBox="0 0 12 12" fill="none" xmlns="http://www.w3.org/2000/svg">
<path d="M3.68479 11.1652L9.68493 5.16502L6.83498 2.31507L0.834841 8.31521C0.752238 8.39791 0.69356 8.50144 0.665032 8.61479L0 12L3.38456 11.335C3.4982 11.3066 3.60215 11.2478 3.68479 11.1652ZM11.6219 3.22803C11.864 2.98588 12 2.65748 12 2.31507C12 1.97266 11.864 1.64426 11.6219 1.4021L10.5979 0.378082C10.3557 0.135996 10.0273 0 9.68493 0C9.34252 0 9.01412 0.135996 8.77197 0.378082L7.74794 1.4021L10.5979 4.25205L11.6219 3.22803Z" fill="#13C9BE"/>
</svg>
