<svg width="25" height="24" viewBox="0 0 25 24" fill="none" xmlns="http://www.w3.org/2000/svg">
<g clip-path="url(#clip0_2901_43847)">
<path d="M17.3887 13.7782C16.8846 13.7786 16.3882 13.9016 15.9423 14.1367C15.4964 14.3718 15.1145 14.7118 14.8293 15.1275L10.49 13.1682C10.7982 12.4239 10.7994 11.588 10.4933 10.8428L14.8267 8.8735C15.2492 9.48467 15.8769 9.92414 16.5957 10.1122C17.3146 10.3003 18.077 10.2244 18.7447 9.8985C19.4125 9.57256 19.9413 9.0181 20.2352 8.33568C20.5292 7.65325 20.5688 6.88808 20.3469 6.17895C20.125 5.46982 19.6563 4.8637 19.0258 4.47054C18.3953 4.07737 17.6448 3.92321 16.9104 4.03602C16.1759 4.14882 15.5063 4.52111 15.0228 5.08537C14.5394 5.64962 14.2742 6.36846 14.2753 7.1115C14.2782 7.28736 14.296 7.46267 14.3287 7.6355L9.722 9.72883C9.27956 9.31431 8.72567 9.03806 8.12838 8.93401C7.53109 8.82996 6.91641 8.90264 6.35987 9.14314C5.80332 9.38363 5.32915 9.78146 4.99559 10.2877C4.66204 10.794 4.48364 11.3867 4.48231 11.993C4.48098 12.5993 4.65677 13.1927 4.98809 13.7005C5.31942 14.2082 5.79184 14.6081 6.34733 14.8511C6.90281 15.094 7.51716 15.1694 8.1149 15.068C8.71264 14.9666 9.26774 14.6927 9.712 14.2802L14.3307 16.3655C14.2986 16.5382 14.281 16.7132 14.278 16.8888C14.2779 17.5043 14.4602 18.1059 14.8021 18.6176C15.1439 19.1294 15.6298 19.5283 16.1984 19.7639C16.7669 19.9994 17.3926 20.0611 17.9962 19.9411C18.5998 19.8211 19.1542 19.5247 19.5894 19.0895C20.0245 18.6544 20.3209 18.0999 20.4409 17.4963C20.5609 16.8927 20.4993 16.2671 20.2637 15.6985C20.0281 15.13 19.6292 14.6441 19.1175 14.3022C18.6057 13.9604 18.0041 13.778 17.3887 13.7782ZM17.3887 5.3335C17.7403 5.33337 18.0842 5.43753 18.3766 5.63282C18.6691 5.82811 18.8971 6.10575 19.0318 6.43063C19.1665 6.7555 19.2018 7.11302 19.1332 7.45796C19.0647 7.8029 18.8954 8.11977 18.6468 8.3685C18.3982 8.61722 18.0814 8.78663 17.7364 8.85529C17.3915 8.92394 17.034 8.88877 16.7091 8.75422C16.3841 8.61967 16.1064 8.39178 15.911 8.09937C15.7156 7.80697 15.6113 7.46318 15.6113 7.1115C15.6117 6.64017 15.799 6.18823 16.1322 5.85489C16.4655 5.52154 16.9173 5.33403 17.3887 5.3335ZM7.61133 13.7782C7.25965 13.7783 6.91582 13.6741 6.62334 13.4788C6.33087 13.2836 6.10287 13.0059 5.9682 12.681C5.83352 12.3562 5.79822 11.9986 5.86674 11.6537C5.93527 11.3088 6.10456 10.9919 6.35319 10.7432C6.60182 10.4944 6.91863 10.325 7.26355 10.2564C7.60846 10.1877 7.96599 10.2229 8.29092 10.3574C8.61585 10.492 8.89357 10.7199 9.08897 11.0123C9.28437 11.3047 9.38866 11.6485 9.38866 12.0002C9.38813 12.4714 9.20073 12.9233 8.86755 13.2566C8.53437 13.5899 8.08261 13.7775 7.61133 13.7782ZM17.3887 18.6668C17.037 18.6668 16.6932 18.5626 16.4009 18.3672C16.1085 18.1718 15.8806 17.8941 15.746 17.5692C15.6114 17.2444 15.5762 16.8869 15.6448 16.542C15.7134 16.1971 15.8828 15.8803 16.1314 15.6316C16.3801 15.3829 16.6969 15.2136 17.0418 15.145C17.3867 15.0764 17.7442 15.1116 18.0691 15.2462C18.394 15.3807 18.6716 15.6086 18.867 15.901C19.0624 16.1934 19.1667 16.5372 19.1667 16.8888C19.1663 17.3603 18.9789 17.8123 18.6455 18.1457C18.3121 18.479 17.8601 18.6665 17.3887 18.6668Z" fill="#69777E"/>
</g>
<defs>
<clipPath id="clip0_2901_43847">
<rect width="16" height="16" fill="white" transform="translate(4.5 4)"/>
</clipPath>
</defs>
</svg>
