<svg width="24" height="24" viewBox="0 0 24 24" fill="none" xmlns="http://www.w3.org/2000/svg">
<path d="M1.5 5C1.5 4.17231 2.17311 3.5 3.00228 3.5H3.04176H3.08119H3.12057H3.1599H3.19917H3.2384H3.27758H3.31671H3.35578H3.39481H3.43379H3.47273H3.51161H3.55044H3.58923H3.62797H3.66666H3.7053H3.74389H3.78244H3.82094H3.85939H3.8978H3.93616H3.97448H4.01274H4.05097H4.08914H4.12727H4.16536H4.2034H4.24139H4.27935H4.31725H4.35511H4.39293H4.43071H4.46844H4.50612H4.54377H4.58137H4.61893H4.65644H4.69391H4.73134H4.76873H4.80608H4.84338H4.88065H4.91787H4.95505H4.99219H5.02929H5.06635H5.10336H5.14034H5.17728H5.21418H5.25104H5.28786H5.32464H5.36138H5.39808H5.43475H5.47137H5.50796H5.54451H5.58103H5.6175H5.65394H5.69034H5.7267H5.76303H5.79932H5.83557H5.87179H5.90797H5.94412H5.98023H6.01631H6.05235H6.08835H6.12433H6.16026H6.19616H6.23203H6.26787H6.30367H6.33943H6.37517H6.41087H6.44653H6.48217H6.51777H6.55334H6.58888H6.62439H6.65986H6.6953H6.73071H6.76609H6.80144H6.83676H6.87205H6.90731H6.94254H6.97773H7.0129H7.04804H7.08315H7.11823H7.15328H7.1883H7.2233H7.25826H7.2932H7.32811H7.36299H7.39784H7.43267H7.46747H7.50224H7.53699H7.57171H7.6064H7.64107H7.67571H7.71033H7.74492H7.77948H7.81402H7.84853H7.88302H7.91749H7.95193H7.98635H8.02074H8.05511H8.08945H8.12378H8.15807H8.19235H8.2266H8.26084H8.29504H8.32923H8.36339H8.39754H8.43166H8.46576H8.49984H8.53389H8.56793H8.60195H8.63594H8.66992H8.70387H8.73781H8.77173H8.80562H8.8395H8.87336H8.9072H8.94102H8.97483H9.00861H9.04238H9.07613H9.10986H9.14358H9.17727H9.21095H9.24462H9.27826H9.3119H9.34551H9.37911H9.41269H9.44626H9.47981H9.51335H9.54687H9.58038H9.61387H9.64735H9.68081H9.71426H9.7477H9.78112H9.81453H9.84793H9.88131H9.91468H9.94804H9.98139H10.0147H10.048H10.0814H10.1146H10.1479H10.1812H10.2145H10.2477H10.281H10.3142H10.3474H10.3806H10.4138H10.447H10.4802H10.5134H10.5466H10.5797H10.6129H10.646H10.6791H10.7123H10.7454H10.7785H10.8116H10.8447H10.8778H10.9109H10.9439H10.977H11.0101H11.0431H11.0762H11.1092H11.1422H11.1753H11.2083H11.2413H11.2743H11.3074H11.3404H11.3734H11.4064H11.4394H11.4724H11.5054H11.5384H11.5713H11.6043H11.6373H11.6703H11.7033H11.7362H11.7692H11.8022H11.8352H11.8681H11.9011H11.9341H11.967H12H12.033H12.0659H12.0989H12.1319H12.1648H12.1978H12.2308H12.2638H12.2967H12.3297H12.3627H12.3957H12.4287H12.4616H12.4946H12.5276H12.5606H12.5936H12.6266H12.6596H12.6926H12.7257H12.7587H12.7917H12.8247H12.8578H12.8908H12.9238H12.9569H12.9899H13.023H13.0561H13.0891H13.1222H13.1553H13.1884H13.2215H13.2546H13.2877H13.3209H13.354H13.3871H13.4203H13.4534H13.4866H13.5198H13.553H13.5862H13.6194H13.6526H13.6858H13.719H13.7523H13.7855H13.8188H13.8521H13.8854H13.9186H13.952H13.9853H14.0186H14.052H14.0853H14.1187H14.1521H14.1855H14.2189H14.2523H14.2857H14.3192H14.3527H14.3861H14.4196H14.4531H14.4867H14.5202H14.5537H14.5873H14.6209H14.6545H14.6881H14.7217H14.7554H14.789H14.8227H14.8564H14.8901H14.9239H14.9576H14.9914H15.0252H15.059H15.0928H15.1266H15.1605H15.1944H15.2283H15.2622H15.2961H15.3301H15.3641H15.3981H15.4321H15.4661H15.5002H15.5342H15.5683H15.6025H15.6366H15.6708H15.705H15.7392H15.7734H15.8076H15.8419H15.8762H15.9105H15.9449H15.9793H16.0137H16.0481H16.0825H16.117H16.1515H16.186H16.2205H16.2551H16.2897H16.3243H16.3589H16.3936H16.4283H16.463H16.4978H16.5325H16.5673H16.6022H16.637H16.6719H16.7068H16.7417H16.7767H16.8117H16.8467H16.8818H16.9169H16.952H16.9871H17.0223H17.0575H17.0927H17.1279H17.1632H17.1986H17.2339H17.2693H17.3047H17.3401H17.3756H17.4111H17.4467H17.4822H17.5178H17.5535H17.5891H17.6248H17.6606H17.6963H17.7321H17.768H17.8038H17.8397H17.8757H17.9116H17.9477H17.9837H18.0198H18.0559H18.092H18.1282H18.1644H18.2007H18.237H18.2733H18.3097H18.3461H18.3825H18.419H18.4555H18.492H18.5286H18.5653H18.6019H18.6386H18.6754H18.7121H18.749H18.7858H18.8227H18.8597H18.8966H18.9337H18.9707H19.0078H19.045H19.0821H19.1194H19.1566H19.1939H19.2313H19.2687H19.3061H19.3436H19.3811H19.4186H19.4562H19.4939H19.5316H19.5693H19.6071H19.6449H19.6827H19.7207H19.7586H19.7966H19.8346H19.8727H19.9109H19.949H19.9873H20.0255H20.0638H20.1022H20.1406H20.1791H20.2176H20.2561H20.2947H20.3333H20.372H20.4108H20.4496H20.4884H20.5273H20.5662H20.6052H20.6442H20.6833H20.7224H20.7616H20.8008H20.8401H20.8794H20.9188H20.9582H20.9977C21.8269 3.5 22.5 4.17232 22.5 5V8.5V10C22.5 10.8284 21.8284 11.5 21 11.5H3C2.17157 11.5 1.5 10.8284 1.5 10V8.5V5Z" stroke="black"/>
<path d="M4.5 9C4.5 8.72386 4.72386 8.5 5 8.5H19C19.2761 8.5 19.5 8.72386 19.5 9V19.75L17.6333 21.15C17.4556 21.2833 17.2111 21.2833 17.0333 21.15L15.5667 20.05C15.0333 19.65 14.3 19.65 13.7667 20.05L12.3 21.15C12.1222 21.2833 11.8778 21.2833 11.7 21.15L10.2333 20.05C9.7 19.65 8.96667 19.65 8.43333 20.05L6.96667 21.15C6.78889 21.2833 6.54444 21.2833 6.36667 21.15L4.5 19.75V9Z" fill="white" stroke="black"/>
<path d="M9 12L10 17L12 12L14 17L15 12" stroke="black" stroke-linecap="round" stroke-linejoin="round"/>
<path d="M8 14H16" stroke="black" stroke-linecap="round" stroke-linejoin="round"/>
</svg>
