<svg width="16" height="16" viewBox="0 0 16 16" fill="none" xmlns="http://www.w3.org/2000/svg">
<g clip-path="url(#clip0_826_14900)">
<path d="M8.00005 0.027832C9.76409 0.0297728 11.4553 0.731349 12.7028 1.97865C13.9502 3.22595 14.6519 4.91713 14.6541 6.68117C14.6541 8.3945 13.3274 11.0758 10.7107 14.6505C10.3992 15.0773 9.99135 15.4244 9.52032 15.6638C9.04929 15.9031 8.5284 16.0279 8.00005 16.0279C7.4717 16.0279 6.95082 15.9031 6.47979 15.6638C6.00876 15.4244 5.60089 15.0773 5.28939 14.6505C2.67272 11.0758 1.34605 8.3945 1.34605 6.68117C1.34817 4.91713 2.04992 3.22595 3.29734 1.97865C4.54477 0.731349 6.23601 0.0297728 8.00005 0.027832ZM8.00005 9.33317C8.52747 9.33317 9.04304 9.17677 9.48157 8.88375C9.9201 8.59073 10.2619 8.17426 10.4637 7.68699C10.6656 7.19972 10.7184 6.66354 10.6155 6.14626C10.5126 5.62898 10.2586 5.15382 9.88567 4.78088C9.51273 4.40794 9.03758 4.15397 8.52029 4.05107C8.00301 3.94818 7.46683 4.00099 6.97956 4.20282C6.49229 4.40465 6.07582 4.74645 5.7828 5.18498C5.48978 5.62351 5.33339 6.13908 5.33339 6.6665C5.33339 7.37374 5.61434 8.05202 6.11443 8.55212C6.61453 9.05222 7.29281 9.33317 8.00005 9.33317Z" fill="#13C9BE"/>
</g>
<defs>
<clipPath id="clip0_826_14900">
<rect width="16" height="16" fill="white" transform="matrix(-1 0 0 1 16 0)"/>
</clipPath>
</defs>
</svg>
