<svg width="16" height="16" viewBox="0 0 16 16" fill="none" xmlns="http://www.w3.org/2000/svg">
<g clip-path="url(#clip0_826_14904)">
<path d="M16 3.00007C16 3.17688 15.9297 3.34645 15.8047 3.47147C15.6797 3.5965 15.5101 3.66673 15.3333 3.66673C15.1565 3.66673 14.9869 3.5965 14.8619 3.47147C14.7369 3.34645 14.6666 3.17688 14.6666 3.00007C14.6592 2.76704 14.6047 2.53794 14.5063 2.32656C14.4079 2.11519 14.2678 1.92593 14.0943 1.77019C13.9208 1.61445 13.7175 1.49546 13.4968 1.42039C13.2761 1.34532 13.0424 1.31573 12.81 1.3334C12.6332 1.3334 12.4636 1.26316 12.3386 1.13814C12.2135 1.01311 12.1433 0.843545 12.1433 0.666734C12.1433 0.489923 12.2135 0.320353 12.3386 0.195329C12.4636 0.0703048 12.6332 6.6885e-05 12.81 6.6885e-05C13.2174 -0.0164214 13.624 0.048508 14.0061 0.191056C14.3881 0.333605 14.7379 0.550909 15.0349 0.830257C15.3319 1.1096 15.5703 1.44538 15.736 1.81795C15.9017 2.19052 15.9914 2.5924 16 3.00007Z" fill="#13C9BE"/>
<path d="M1.33333 3.00007C1.34076 2.76704 1.39531 2.53794 1.49368 2.32656C1.59205 2.11519 1.73221 1.92593 1.9057 1.77019C2.0792 1.61445 2.28243 1.49546 2.50316 1.42039C2.72389 1.34532 2.95753 1.31573 3.19 1.3334C3.36681 1.3334 3.53638 1.26316 3.6614 1.13814C3.78643 1.01311 3.85667 0.843545 3.85667 0.666734C3.85667 0.489923 3.78643 0.320353 3.6614 0.195329C3.53638 0.0703048 3.36681 6.6885e-05 3.19 6.6885e-05C2.78257 -0.0164214 2.37595 0.048508 1.99392 0.191056C1.61189 0.333605 1.26212 0.550909 0.965084 0.830257C0.668045 1.1096 0.429698 1.44538 0.263987 1.81795C0.0982768 2.19052 0.00853083 2.5924 0 3.00007C0 3.17688 0.0702379 3.34645 0.195262 3.47147C0.320286 3.5965 0.489856 3.66673 0.666667 3.66673C0.843478 3.66673 1.01305 3.5965 1.13807 3.47147C1.2631 3.34645 1.33333 3.17688 1.33333 3.00007Z" fill="#13C9BE"/>
<path d="M13.546 13.4507C14.4283 12.4321 15.0123 11.1898 15.2336 9.86054C15.455 8.53131 15.3051 7.16676 14.8006 5.91725C14.296 4.66774 13.4563 3.58176 12.374 2.77895C11.2918 1.97614 10.0089 1.48766 8.6667 1.36733V0.666667C8.6667 0.489856 8.59646 0.320286 8.47144 0.195262C8.34642 0.0702379 8.17685 0 8.00004 0C7.82323 0 7.65366 0.0702379 7.52863 0.195262C7.40361 0.320286 7.33337 0.489856 7.33337 0.666667V1.36733C5.99121 1.48766 4.70832 1.97614 3.62603 2.77895C2.54374 3.58176 1.70405 4.66774 1.19949 5.91725C0.694931 7.16676 0.545074 8.53131 0.766432 9.86054C0.98779 11.1898 1.57177 12.4321 2.45404 13.4507C2.10562 13.623 1.81446 13.8925 1.61563 14.2265C1.4168 14.5605 1.31878 14.9449 1.33337 15.3333C1.33337 15.5101 1.40361 15.6797 1.52863 15.8047C1.65366 15.9298 1.82322 16 2.00004 16C2.17685 16 2.34642 15.9298 2.47144 15.8047C2.59646 15.6797 2.6667 15.5101 2.6667 15.3333C2.66116 15.1278 2.73493 14.9281 2.87271 14.7756C3.0105 14.623 3.20171 14.5293 3.4067 14.514C3.45256 14.5053 3.49729 14.4914 3.54004 14.4727C4.81706 15.4631 6.38726 16.0007 8.00337 16.0007C9.61948 16.0007 11.1897 15.4631 12.4667 14.4727C12.5057 14.4906 12.5463 14.5049 12.588 14.5153C12.7937 14.5294 12.9861 14.6223 13.125 14.7747C13.2638 14.9271 13.3385 15.1272 13.3334 15.3333C13.3334 15.5101 13.4036 15.6797 13.5286 15.8047C13.6537 15.9298 13.8232 16 14 16C14.1768 16 14.3464 15.9298 14.4714 15.8047C14.5965 15.6797 14.6667 15.5101 14.6667 15.3333C14.6813 14.9449 14.5833 14.5605 14.3844 14.2265C14.1856 13.8925 13.8945 13.623 13.546 13.4507ZM10.4714 10.4713C10.3464 10.5963 10.1768 10.6665 10 10.6665C9.82326 10.6665 9.65372 10.5963 9.5287 10.4713L7.5287 8.47133C7.40367 8.34634 7.33341 8.1768 7.33337 8V4.66667C7.33337 4.48986 7.40361 4.32029 7.52863 4.19526C7.65366 4.07024 7.82323 4 8.00004 4C8.17685 4 8.34642 4.07024 8.47144 4.19526C8.59646 4.32029 8.6667 4.48986 8.6667 4.66667V7.724L10.4714 9.52867C10.5963 9.65369 10.6666 9.82323 10.6666 10C10.6666 10.1768 10.5963 10.3463 10.4714 10.4713Z" fill="#13C9BE"/>
</g>
<defs>
<clipPath id="clip0_826_14904">
<rect width="16" height="16" fill="white"/>
</clipPath>
</defs>
</svg>
