<svg width="30" height="25" viewBox="0 0 30 25" fill="none" xmlns="http://www.w3.org/2000/svg">
<path d="M8.66698 11.5762C8.66698 10.7477 8.06996 10.0762 7.33349 10.0762C6.59702 10.0762 6 10.7477 6 11.5762C6 12.4046 6.59702 13.0762 7.33349 13.0762C8.06996 13.0762 8.66698 12.4046 8.66698 11.5762Z" fill="#536067"/>
<path d="M15.333 11.5762C15.333 10.7477 14.736 10.0762 13.9995 10.0762C13.263 10.0762 12.666 10.7477 12.666 11.5762C12.666 12.4046 13.263 13.0762 13.9995 13.0762C14.736 13.0762 15.333 12.4046 15.333 11.5762Z" fill="#536067"/>
<path d="M22.334 11.5762C22.334 10.7477 21.6624 10.0762 20.834 10.0762C20.0056 10.0762 19.334 10.7477 19.334 11.5762C19.334 12.4046 20.0056 13.0762 20.834 13.0762C21.6624 13.0762 22.334 12.4046 22.334 11.5762Z" fill="#536067"/>
</svg>
