<svg width="24" height="24" viewBox="0 0 24 24" fill="none" xmlns="http://www.w3.org/2000/svg">
<path d="M7.05518 17.0859L7.05518 20.836" stroke="#252E33" stroke-linecap="round" stroke-linejoin="round"/>
<path d="M9.55542 6.44727L9.55542 17.0535" stroke="#252E33" stroke-linejoin="round"/>
<path d="M18.2219 6.44727L18.2219 17.0535" stroke="#252E33" stroke-linejoin="round"/>
<path d="M18.222 3H18.722C18.722 2.83426 18.6398 2.67929 18.5027 2.58624C18.3655 2.49319 18.1912 2.47415 18.0372 2.5354L18.222 3ZM9.5553 6.44702L9.37051 5.98242C9.1802 6.05811 9.0553 6.24221 9.0553 6.44702H9.5553ZM18.222 8.03711H17.722C17.722 8.31325 17.9458 8.53711 18.222 8.53711V8.03711ZM18.222 15.4615V14.9615C17.9458 14.9615 17.722 15.1853 17.722 15.4615H18.222ZM18.222 20.5003L18.0372 20.9649C18.1912 21.0261 18.3655 21.0071 18.5027 20.914C18.6398 20.821 18.722 20.666 18.722 20.5003H18.222ZM9.56083 17.0554L9.74561 16.5908C9.68681 16.5674 9.62411 16.5554 9.56083 16.5554V17.0554ZM9.5553 6.44922V6.94922C9.83144 6.94922 10.0553 6.72536 10.0553 6.44922H9.5553ZM18.0372 2.5354L9.37051 5.98242L9.74008 6.91162L18.4067 3.4646L18.0372 2.5354ZM18.722 8.03711V3H17.722V8.03711H18.722ZM18.2877 7.53711H18.222V8.53711H18.2877V7.53711ZM22.4998 11.7493C22.4998 9.42296 20.614 7.53711 18.2877 7.53711V8.53711C20.0617 8.53711 21.4998 9.97525 21.4998 11.7493H22.4998ZM18.2877 15.9615C20.614 15.9615 22.4998 14.0756 22.4998 11.7493H21.4998C21.4998 13.5233 20.0617 14.9615 18.2877 14.9615V15.9615ZM18.222 15.9615H18.2877V14.9615H18.222V15.9615ZM18.722 20.5003V15.4615H17.722V20.5003H18.722ZM9.37604 17.52L18.0372 20.9649L18.4067 20.0357L9.74561 16.5908L9.37604 17.52ZM7.30311 17.5554H9.56083V16.5554H7.30311V17.5554ZM1.5 11.7523C1.5 14.9573 4.09814 17.5554 7.30311 17.5554V16.5554C4.65043 16.5554 2.5 14.405 2.5 11.7523H1.5ZM7.30311 5.94922C4.09814 5.94922 1.5 8.54736 1.5 11.7523H2.5C2.5 9.09964 4.65042 6.94922 7.30311 6.94922V5.94922ZM9.5553 5.94922H7.30311V6.94922H9.5553V5.94922ZM9.0553 6.44702V6.44922H10.0553V6.44702H9.0553Z" fill="#252E33"/>
</svg>
