<svg xmlns="http://www.w3.org/2000/svg" width="32" height="32" fill="none"><path stroke="#fff" stroke-linecap="round" stroke-linejoin="round" stroke-width="1.5" d="M9.333 4.333h-2a2 2 0 0 0-2 2v2M22.666 25.667h2a2 2 0 0 0 2-2v-2M5.333 21.667v2a2 2 0 0 0 2 2h2M26.666 8.333v-2a2 2 0 0 0-2-2h-2"/><path fill="#fff" d="M10.373 10.86c1.793 0 3.19.616 3.19 2.552 0 1.859-1.397 2.695-3.146 2.695H9.328V19H7.7v-8.14h2.673Zm-.066 3.96c1.111 0 1.661-.473 1.661-1.408 0-.957-.583-1.265-1.716-1.265h-.924v2.673h.98Zm5.115 4.29c-1.1 0-1.826-.715-1.826-1.782-.077-1.507.99-2.2 3.542-2.277a1.398 1.398 0 0 0-.143-.781c-.132-.187-.429-.286-.902-.286-.572 0-1.22.22-1.782.583l-.484-1.155a5.083 5.083 0 0 1 2.563-.726c1.573 0 2.365.902 2.365 2.717V19h-1.32l-.12-.627h-.034c-.528.451-1.155.737-1.859.737Zm.495-1.232c.473-.011.836-.209 1.221-.594v-1.243a16.36 16.36 0 0 0-1.11.121c-.705.099-.958.451-.947.891.011.517.363.825.836.825Zm4.74 3.597.857-2.442-2.387-6.193h1.628l.98 2.86c.186.561.34 1.122.516 1.738h.055c.143-.572.297-1.166.44-1.738l.847-2.86h1.551l-2.134 6.336-.759 2.299h-1.595Z"/></svg>