<svg width="24" height="24" viewBox="0 0 24 24" fill="none" xmlns="http://www.w3.org/2000/svg">
<path d="M9.68479 17.1652L15.6849 11.165L12.835 8.31507L6.83484 14.3152C6.75224 14.3979 6.69356 14.5014 6.66503 14.6148L6 18L9.38456 17.335C9.4982 17.3066 9.60215 17.2478 9.68479 17.1652V17.1652ZM17.6219 9.22803C17.864 8.98588 18 8.65748 18 8.31507C18 7.97266 17.864 7.64426 17.6219 7.4021L16.5979 6.37808C16.3557 6.136 16.0273 6 15.6849 6C15.3425 6 15.0141 6.136 14.772 6.37808L13.7479 7.4021L16.5979 10.2521L17.6219 9.22803Z" fill="#9DAAB0"/>
</svg>
