<svg width="24" height="24" viewBox="0 0 24 24" fill="none" xmlns="http://www.w3.org/2000/svg">
<path d="M18.2222 7.2H15.8889V6.4C15.8889 5.76348 15.6431 5.15303 15.2055 4.70294C14.7679 4.25286 14.1744 4 13.5556 4H10.4444C9.82561 4 9.23211 4.25286 8.79453 4.70294C8.35694 5.15303 8.11111 5.76348 8.11111 6.4V7.2H5.77778C5.5715 7.2 5.37367 7.28429 5.22781 7.43431C5.08194 7.58434 5 7.78783 5 8C5 8.21217 5.08194 8.41566 5.22781 8.56569C5.37367 8.71571 5.5715 8.8 5.77778 8.8H6.55556V17.6C6.55556 18.2365 6.80139 18.847 7.23897 19.2971C7.67656 19.7471 8.27005 20 8.88889 20H15.1111C15.7299 20 16.3234 19.7471 16.761 19.2971C17.1986 18.847 17.4444 18.2365 17.4444 17.6V8.8H18.2222C18.4285 8.8 18.6263 8.71571 18.7722 8.56569C18.9181 8.41566 19 8.21217 19 8C19 7.78783 18.9181 7.58434 18.7722 7.43431C18.6263 7.28429 18.4285 7.2 18.2222 7.2ZM9.66667 6.4C9.66667 6.18783 9.74861 5.98434 9.89447 5.83431C10.0403 5.68429 10.2382 5.6 10.4444 5.6H13.5556C13.7618 5.6 13.9597 5.68429 14.1055 5.83431C14.2514 5.98434 14.3333 6.18783 14.3333 6.4V7.2H9.66667V6.4ZM11.2222 16C11.2222 16.2122 11.1403 16.4157 10.9944 16.5657C10.8486 16.7157 10.6507 16.8 10.4444 16.8C10.2382 16.8 10.0403 16.7157 9.89447 16.5657C9.74861 16.4157 9.66667 16.2122 9.66667 16V11.2C9.66667 10.9878 9.74861 10.7843 9.89447 10.6343C10.0403 10.4843 10.2382 10.4 10.4444 10.4C10.6507 10.4 10.8486 10.4843 10.9944 10.6343C11.1403 10.7843 11.2222 10.9878 11.2222 11.2V16ZM14.3333 16C14.3333 16.2122 14.2514 16.4157 14.1055 16.5657C13.9597 16.7157 13.7618 16.8 13.5556 16.8C13.3493 16.8 13.1514 16.7157 13.0056 16.5657C12.8597 16.4157 12.7778 16.2122 12.7778 16V11.2C12.7778 10.9878 12.8597 10.7843 13.0056 10.6343C13.1514 10.4843 13.3493 10.4 13.5556 10.4C13.7618 10.4 13.9597 10.4843 14.1055 10.6343C14.2514 10.7843 14.3333 10.9878 14.3333 11.2V16Z" fill="#69777E"/>
</svg>
