<svg width="24" height="24" viewBox="0 0 24 24" fill="none" xmlns="http://www.w3.org/2000/svg">
<path d="M12.5 6.66698C13.3284 6.66698 14 6.06996 14 5.33349C14 4.59702 13.3284 4 12.5 4C11.6716 4 11 4.59702 11 5.33349C11 6.06996 11.6716 6.66698 12.5 6.66698Z" fill="#252E33"/>
<path d="M12.5 13.333C13.3284 13.333 14 12.736 14 11.9995C14 11.263 13.3284 10.666 12.5 10.666C11.6716 10.666 11 11.263 11 11.9995C11 12.736 11.6716 13.333 12.5 13.333Z" fill="#252E33"/>
<path d="M12.5 20.334C13.3284 20.334 14 19.6624 14 18.834C14 18.0056 13.3284 17.334 12.5 17.334C11.6716 17.334 11 18.0056 11 18.834C11 19.6624 11.6716 20.334 12.5 20.334Z" fill="#252E33"/>
</svg>
