<svg width="24" height="24" viewBox="0 0 24 24" fill="none" xmlns="http://www.w3.org/2000/svg">
<path d="M17.009 8.15915C18.4337 8.15915 19.5886 7.00424 19.5886 5.57958C19.5886 4.15492 18.4337 3 17.009 3C15.5844 3 14.4294 4.15492 14.4294 5.57958C14.4294 7.00424 15.5844 8.15915 17.009 8.15915Z" stroke="#252E33" stroke-miterlimit="10"/>
<path d="M6.57958 14.5791C8.00424 14.5791 9.15915 13.4242 9.15915 11.9995C9.15915 10.5748 8.00424 9.41992 6.57958 9.41992C5.15492 9.41992 4 10.5748 4 11.9995C4 13.4242 5.15492 14.5791 6.57958 14.5791Z" stroke="#252E33" stroke-miterlimit="10"/>
<path d="M16.9851 21.0019C18.3965 21.0019 19.5407 19.8577 19.5407 18.4462C19.5407 17.0348 18.3965 15.8906 16.9851 15.8906C15.5736 15.8906 14.4294 17.0348 14.4294 18.4462C14.4294 19.8577 15.5736 21.0019 16.9851 21.0019Z" stroke="#252E33" stroke-miterlimit="10"/>
<path d="M8.85596 13.4062L14.686 17.0161" stroke="#252E33" stroke-miterlimit="10"/>
<path d="M8.85596 10.5569L14.7578 6.95508" stroke="#252E33" stroke-miterlimit="10"/>
</svg>
