<svg width="16" height="16" viewBox="0 0 16 16" fill="none" xmlns="http://www.w3.org/2000/svg">
<g clip-path="url(#clip0_403_164)">
<path d="M6.5854 12.0813C7.36621 12.8627 8.63252 12.8631 9.41383 12.0822C9.41414 12.0819 9.41442 12.0817 9.41473 12.0813L11.5554 9.94069C11.8023 9.66759 11.7811 9.246 11.508 8.99906C11.2537 8.76916 10.8665 8.76956 10.6127 9L8.66208 10.9513L8.66674 0.666687C8.6667 0.298469 8.36824 0 8.00005 0C7.63186 0 7.33339 0.298469 7.33339 0.666656L7.32739 10.9387L5.3874 9C5.1269 8.73969 4.70471 8.73984 4.4444 9.00034C4.18409 9.26084 4.18424 9.68303 4.44474 9.94334L6.5854 12.0813Z" fill="#6E7D85"/>
<path d="M15.3333 10.668C14.9652 10.668 14.6667 10.9664 14.6667 11.3346V14.0013C14.6667 14.3695 14.3682 14.668 14 14.668H2C1.63181 14.668 1.33334 14.3695 1.33334 14.0013V11.3347C1.33334 10.9665 1.03487 10.668 0.666687 10.668C0.298469 10.668 0 10.9665 0 11.3347V14.0013C0 15.1059 0.895437 16.0013 2 16.0013H14C15.1046 16.0013 16 15.1059 16 14.0013V11.3347C16 10.9665 15.7015 10.668 15.3333 10.668Z" fill="#6E7D85"/>
</g>
<defs>
<clipPath id="clip0_403_164">
<rect width="16" height="16" fill="white"/>
</clipPath>
</defs>
</svg>
