<svg width="16" height="18" viewBox="0 0 16 18" fill="none" xmlns="http://www.w3.org/2000/svg">
<path d="M5.375 10.5833C4.85582 10.5833 4.34831 10.4294 3.91663 10.1409C3.48495 9.8525 3.1485 9.44253 2.94982 8.96288C2.75114 8.48322 2.69915 7.95542 2.80044 7.44622C2.90172 6.93702 3.15173 6.46929 3.51884 6.10218C3.88596 5.73507 4.35369 5.48506 4.86289 5.38377C5.37209 5.28249 5.89989 5.33447 6.37954 5.53315C6.8592 5.73183 7.26917 6.06828 7.55761 6.49996C7.84605 6.93164 8 7.43916 8 7.95833C7.99923 8.65429 7.72242 9.32152 7.2303 9.81364C6.73819 10.3058 6.07096 10.5826 5.375 10.5833ZM9.16667 17H1.58333C1.42862 17 1.28025 16.9385 1.17085 16.8291C1.06146 16.7198 1 16.5714 1 16.4167V16.125C1 14.9647 1.46094 13.8519 2.28141 13.0314C3.10188 12.2109 4.21468 11.75 5.375 11.75C6.53532 11.75 7.64812 12.2109 8.46859 13.0314C9.28906 13.8519 9.75 14.9647 9.75 16.125V16.4167C9.75 16.5714 9.68854 16.7198 9.57915 16.8291C9.46975 16.9385 9.32138 17 9.16667 17ZM11.2083 8.25C10.6892 8.25 10.1816 8.09605 9.74996 7.80761C9.31828 7.51917 8.98183 7.1092 8.78315 6.62954C8.58447 6.14989 8.53249 5.62209 8.63377 5.11289C8.73506 4.60369 8.98506 4.13596 9.35218 3.76885C9.71929 3.40173 10.187 3.15173 10.6962 3.05044C11.2054 2.94915 11.7332 3.00114 12.2129 3.19982C12.6925 3.3985 13.1025 3.73495 13.3909 4.16663C13.6794 4.59831 13.8333 5.10583 13.8333 5.625C13.8326 6.32096 13.5558 6.98819 13.0636 7.4803C12.5715 7.97242 11.9043 8.24923 11.2083 8.25ZM10.3794 9.42892C9.83612 9.50181 9.31372 9.68611 8.84496 9.97028C8.3762 10.2544 7.97117 10.6324 7.65525 11.0803C8.96244 11.674 9.98952 12.75 10.5217 14.0833H14.4167C14.5714 14.0833 14.7197 14.0219 14.8291 13.9125C14.9385 13.8031 15 13.6547 15 13.5V13.4778C14.9994 12.8964 14.8748 12.3217 14.6344 11.7923C14.3941 11.2628 14.0435 10.7907 13.6062 10.4075C13.1689 10.0243 12.6548 9.73877 12.0984 9.57002C11.542 9.40127 10.9559 9.35316 10.3794 9.42892Z" fill="white"/>
</svg>
