<svg width="16" height="18" viewBox="0 0 16 18" fill="none" xmlns="http://www.w3.org/2000/svg">
<path d="M12.6662 3H3.33324C2.04646 3 1 4.04646 1 5.33324V12.3329C1 13.6197 2.04646 14.6662 3.33324 14.6662H5.03825L7.22507 16.5077C7.4479 16.7054 7.7273 16.8034 8.00496 16.8034C8.27795 16.8034 8.54802 16.7083 8.75859 16.5211L11.0032 14.6662H12.6668C13.9535 14.6662 15 13.6197 15 12.3329V5.33324C15 4.04646 13.953 3 12.6662 3ZM5.08316 9.99971C4.60018 9.99971 4.2082 9.60772 4.2082 9.12474C4.2082 8.64176 4.60018 8.24978 5.08316 8.24978C5.56614 8.24978 5.95813 8.64176 5.95813 9.12474C5.95813 9.60772 5.56614 9.99971 5.08316 9.99971ZM7.99971 9.99971C7.51673 9.99971 7.12474 9.60772 7.12474 9.12474C7.12474 8.64176 7.51673 8.24978 7.99971 8.24978C8.48269 8.24978 8.87467 8.64176 8.87467 9.12474C8.87467 9.60772 8.48269 9.99971 7.99971 9.99971ZM10.9163 9.99971C10.4333 9.99971 10.0413 9.60772 10.0413 9.12474C10.0413 8.64176 10.4333 8.24978 10.9163 8.24978C11.3992 8.24978 11.7912 8.64176 11.7912 9.12474C11.7912 9.60772 11.3992 9.99971 10.9163 9.99971Z" fill="white"/>
</svg>
