<svg width="16" height="17" viewBox="0 0 16 17" fill="none" xmlns="http://www.w3.org/2000/svg">
<g id="Group 1">
<g id="Group 2">
<path id="Vector" d="M14.6965 12.18C14.2595 11.8135 11.6965 10.1905 11.2705 10.265C11.0705 10.3005 10.9175 10.471 10.508 10.9595C10.3186 11.1999 10.1106 11.4251 9.88599 11.633C9.47439 11.5336 9.07596 11.3859 8.69899 11.193C7.22064 10.4732 6.02631 9.27857 5.307 7.8C5.11412 7.42303 4.96643 7.02461 4.867 6.613C5.07486 6.38835 5.30005 6.18038 5.5405 5.991C6.0285 5.5815 6.1995 5.4295 6.235 5.2285C6.3095 4.8015 4.685 2.2395 4.32 1.8025C4.167 1.6215 4.028 1.5 3.85 1.5C3.334 1.5 1 4.386 1 4.76C1 4.7905 1.05 7.795 4.8445 11.6555C8.70499 15.45 11.7095 15.5 11.74 15.5C12.114 15.5 15 13.166 15 12.65C15 12.472 14.8785 12.333 14.6965 12.18Z" fill="#252E33"/>
<path id="Vector_2" d="M11.4999 8.00003H12.4999C12.4987 6.93953 12.0769 5.92281 11.327 5.17292C10.5771 4.42303 9.56038 4.00122 8.49988 4.00003V5.00003C9.29528 5.00082 10.0579 5.31715 10.6203 5.87959C11.1828 6.44202 11.4991 7.20463 11.4999 8.00003Z" fill="#252E33"/>
<path id="Vector_3" d="M13.9999 8H14.9999C14.9979 6.2767 14.3124 4.62455 13.0939 3.406C11.8753 2.18744 10.2232 1.50198 8.49988 1.5V2.5C9.95804 2.50172 11.356 3.08174 12.3871 4.11281C13.4181 5.14389 13.9982 6.54184 13.9999 8Z" fill="#252E33"/>
</g>
</g>
</svg>
