<svg width="10" height="10" viewBox="0 0 10 10" fill="none" xmlns="http://www.w3.org/2000/svg">
<g opacity="0.8">
<path d="M6.51893 4.06479L1.67177 0.688597C1.50982 0.575834 1.32162 0.511103 1.12723 0.501305C0.932834 0.491508 0.739542 0.53701 0.567954 0.632962C0.396366 0.728915 0.252915 0.871719 0.152894 1.04615C0.0528728 1.22059 3.06435e-05 1.42011 7.83894e-07 1.62345V8.37584C-0.000234377 8.57929 0.052444 8.77899 0.152406 8.95359C0.252369 9.12819 0.395858 9.27113 0.56754 9.36713C0.739222 9.46314 0.932644 9.5086 1.12714 9.49866C1.32163 9.48872 1.50988 9.42375 1.67177 9.31069L6.52089 5.9345C6.66826 5.83195 6.7891 5.69296 6.87268 5.52987C6.95627 5.36678 7 5.18464 7 4.99964C7 4.81465 6.95627 4.63251 6.87268 4.46942C6.7891 4.30633 6.66826 4.16734 6.52089 4.06479H6.51893Z" fill="white"/>
<path d="M9 0.5C8.73489 0.500332 8.48074 0.59967 8.29328 0.776232C8.10582 0.952793 8.00035 1.19217 8 1.44186V8.55814C8 8.80794 8.10536 9.0475 8.29289 9.22414C8.48043 9.40077 8.73478 9.5 9 9.5C9.26522 9.5 9.51957 9.40077 9.70711 9.22414C9.89464 9.0475 10 8.80794 10 8.55814V1.44186C9.99965 1.19217 9.89418 0.952793 9.70672 0.776232C9.51926 0.59967 9.26511 0.500332 9 0.5Z" fill="white"/>
</g>
</svg>
