<svg width="25" height="24" viewBox="0 0 25 24" fill="none" xmlns="http://www.w3.org/2000/svg">
<path fill-rule="evenodd" clip-rule="evenodd" d="M10.8022 5.47785C11.3478 4.24201 12.7912 3.65582 14.0423 4.20912C15.2844 4.75842 15.8455 6.20237 15.3124 7.44248L14.9766 8.22114H18.2076C19.9959 8.22114 21.3219 9.87165 20.9314 11.6167L19.5669 17.7397C19.3427 18.6973 18.4996 19.4 17.4925 19.4H11.3689C10.9301 19.4 10.4765 19.265 10.0975 19.0447C9.98763 18.9809 9.87929 18.907 9.77671 18.8233C9.7271 18.8789 9.67391 18.932 9.61678 18.982C9.31008 19.2506 8.92364 19.4 8.46349 19.4H6.67558C5.75085 19.4 5 18.6456 5 17.725V9.89616C5 8.97551 5.75085 8.22114 6.67558 8.22114H8.45232C8.83325 8.22114 9.18622 8.32084 9.4914 8.49336L10.8022 5.47785ZM9.15687 9.6246C8.9709 9.44202 8.72534 9.33436 8.45232 9.33436H6.67558C6.37112 9.33436 6.11626 9.58656 6.11626 9.89616V17.725C6.11626 18.0346 6.37112 18.2868 6.67558 18.2868H8.46349C8.66264 18.2868 8.78464 18.2293 8.88022 18.1455C8.97528 18.0623 9.06824 17.9309 9.15687 17.7348V9.6246ZM10.2731 17.725V9.49388L11.8244 5.92512C12.1285 5.23823 12.9193 4.93027 13.5898 5.22677C14.2696 5.5274 14.5802 6.32004 14.2866 7.0035C14.2865 7.00362 14.2866 7.00338 14.2866 7.0035L13.6162 8.55783C13.5421 8.72982 13.5596 8.92749 13.6628 9.08386C13.766 9.24023 13.9412 9.33436 14.1289 9.33436H18.2076C19.28 9.33436 20.0771 10.3233 19.8419 11.3742L18.4792 17.4892C18.3673 17.9618 17.9595 18.2868 17.4925 18.2868H11.3689C11.1483 18.2868 10.8867 18.2149 10.6595 18.0829C10.4702 17.9728 10.3422 17.8437 10.2731 17.725Z" fill="white"/>
</svg>
