<svg width="32" height="32" viewBox="0 0 32 32" fill="none" xmlns="http://www.w3.org/2000/svg">
<path d="M9.33325 5.33337H7.33325C6.22868 5.33337 5.33325 6.2288 5.33325 7.33337V9.33337" stroke="white" stroke-width="1.5" stroke-linecap="round" stroke-linejoin="round"/>
<path d="M22.6665 26.6667L24.6665 26.6667C25.7711 26.6667 26.6665 25.7713 26.6665 24.6667L26.6665 22.6667" stroke="white" stroke-width="1.5" stroke-linecap="round" stroke-linejoin="round"/>
<path d="M5.33325 22.6667L5.33325 24.6667C5.33325 25.7713 6.22868 26.6667 7.33325 26.6667L9.33325 26.6667" stroke="white" stroke-width="1.5" stroke-linecap="round" stroke-linejoin="round"/>
<path d="M26.6665 9.33337L26.6665 7.33337C26.6665 6.2288 25.7711 5.33337 24.6665 5.33337L22.6665 5.33337" stroke="white" stroke-width="1.5" stroke-linecap="round" stroke-linejoin="round"/>
<path d="M10.8849 11.6H8.45492V19H9.93492V16.37H10.9249C12.5149 16.37 13.7849 15.61 13.7849 13.92C13.7849 12.16 12.5149 11.6 10.8849 11.6ZM10.8249 15.2H9.93492V12.77H10.7749C11.8049 12.77 12.3349 13.05 12.3349 13.92C12.3349 14.77 11.8349 15.2 10.8249 15.2ZM15.4747 19.1C16.1147 19.1 16.6847 18.84 17.1647 18.43H17.1947L17.3047 19H18.5047V15.73C18.5047 14.08 17.7847 13.26 16.3547 13.26C15.4747 13.26 14.6347 13.55 14.0247 13.92L14.4647 14.97C14.9747 14.64 15.5647 14.44 16.0847 14.44C16.5147 14.44 16.7847 14.53 16.9047 14.7C17.0147 14.93 17.0647 15.17 17.0347 15.41C14.7147 15.48 13.7447 16.11 13.8147 17.48C13.8147 18.45 14.4747 19.1 15.4747 19.1ZM15.9247 17.98C15.4947 17.98 15.1747 17.7 15.1647 17.23C15.1547 16.83 15.3847 16.51 16.0247 16.42C16.3447 16.37 16.6847 16.34 17.0347 16.31V17.44C16.6847 17.79 16.3547 17.97 15.9247 17.98ZM20.2329 21.25H21.6829L22.3729 19.16L24.3129 13.4H22.9029L22.1329 16C22.0029 16.52 21.8629 17.06 21.7329 17.58H21.6829C21.5229 17.02 21.3829 16.51 21.2129 16L20.3229 13.4H18.8429L21.0129 19.03L20.2329 21.25Z" fill="white"/>
</svg>
