<svg width="24" height="24" viewBox="0 0 24 24" fill="none" xmlns="http://www.w3.org/2000/svg">
<path d="M11.1767 3.21852C11.4815 3.21852 11.7863 3.23012 12.0912 3.25332C14.987 3.68258 17.1677 6.17694 17.1677 9.07736V11.885C17.1677 14.2285 18.1994 16.4328 20.005 17.941C20.1456 18.0687 20.2277 18.2311 20.2277 18.4051C20.2277 18.7416 19.9581 19.0084 19.6181 19.0084H2.79392C2.45392 19.0084 2.18426 18.7416 2.18426 18.4051C2.18426 18.2311 2.26633 18.0571 2.39529 17.9526C4.20081 16.4328 5.24426 14.2285 5.24426 11.885V9.07736C5.24426 6.16534 7.43667 3.65938 10.3208 3.25332C10.3208 3.25332 10.6608 3.21852 11.1767 3.21852ZM11.1767 2.05835C10.567 2.05835 10.1801 2.10476 10.1801 2.10476C6.7215 2.59203 4.06012 5.53885 4.06012 9.08896V11.8966C4.06012 13.8921 3.18081 15.7831 1.6215 17.0709C1.22288 17.4074 1.00012 17.8946 1.00012 18.4167C1.00012 19.3913 1.79736 20.1802 2.78219 20.1802H19.6181C20.6029 20.1802 21.4001 19.3913 21.4001 18.4167C21.4001 17.8946 21.1774 17.4074 20.767 17.0709C19.2312 15.7831 18.3401 13.8921 18.3401 11.8966V9.08896C18.3401 5.53885 15.6787 2.60363 12.2201 2.10476C11.8332 2.06995 11.4698 2.05835 11.1767 2.05835Z" fill="black"/>
<path d="M8.33954 19.9832C8.60919 21.3057 9.79333 22.3035 11.212 22.3035C12.6306 22.3035 13.8147 21.3057 14.0844 19.9832" stroke="black" stroke-linejoin="round"/>
<path d="M11.2119 2.2557V1.19995" stroke="black" stroke-linecap="round" stroke-linejoin="round"/>
<circle cx="21.5" cy="2.5" r="2.5" fill="#FF5833"/>
</svg>
