<svg width="20" height="20" viewBox="0 0 20 20" fill="none" xmlns="http://www.w3.org/2000/svg">
<path d="M10.0001 3.27358C10.4346 3.27358 10.8691 3.31853 11.2962 3.40094C11.3261 3.40094 11.3486 3.42341 11.3561 3.45338L11.8206 4.8618C11.888 5.05659 12.0303 5.21391 12.2101 5.30381C12.4723 5.42368 12.7196 5.57351 12.9593 5.73083C13.0867 5.82073 13.2365 5.86568 13.3863 5.86568C13.4388 5.86568 13.4912 5.86568 13.5362 5.8507L15.0045 5.55104C15.0045 5.55104 15.0495 5.55853 15.0644 5.581C15.6413 6.24027 16.0758 6.99692 16.3605 7.82849C16.368 7.85846 16.3605 7.88843 16.3455 7.9109L15.3566 9.01966C15.2218 9.17699 15.1543 9.37926 15.1693 9.58154C15.1918 9.86622 15.1918 10.1509 15.1693 10.4356C15.1543 10.6379 15.2218 10.8401 15.3566 10.9975L16.338 12.0987C16.338 12.0987 16.368 12.1512 16.353 12.1811C16.0683 13.0127 15.6338 13.7619 15.0644 14.4211C15.0495 14.4361 15.027 14.4511 14.9895 14.4511C14.9895 14.4511 14.9895 14.4511 14.982 14.4511L13.5287 14.1514C13.4762 14.1439 13.4313 14.1365 13.3788 14.1365C13.229 14.1365 13.0792 14.1814 12.9518 14.2713C12.7121 14.4361 12.4648 14.5785 12.2026 14.6983C12.0154 14.7882 11.873 14.9455 11.8131 15.1403L11.3486 16.5488C11.3486 16.5488 11.3186 16.5937 11.2887 16.6012C10.8616 16.6836 10.4271 16.7286 9.99261 16.7286C9.55809 16.7286 9.12358 16.6836 8.69656 16.6012C8.66659 16.6012 8.64411 16.5787 8.63662 16.5488L8.17214 15.1403C8.10472 14.9455 7.96238 14.7882 7.78258 14.6983C7.52037 14.5785 7.27315 14.4286 7.03341 14.2713C6.90605 14.1814 6.75622 14.1365 6.60639 14.1365C6.55395 14.1365 6.50151 14.1365 6.45656 14.1514L4.9882 14.4511C4.9882 14.4511 4.94325 14.4436 4.92826 14.4211C4.35141 13.7619 3.91689 13.0052 3.63221 12.1736C3.62472 12.1437 3.63221 12.1137 3.64719 12.0912L4.63609 10.9825C4.77094 10.8251 4.83836 10.6229 4.82338 10.4206C4.80091 10.1359 4.80091 9.85123 4.82338 9.56655C4.83836 9.36428 4.77094 9.162 4.63609 9.00468L3.65468 7.90341C3.65468 7.90341 3.62472 7.85097 3.6397 7.821C3.92438 6.98943 4.3589 6.24027 4.92826 5.581C4.94325 5.56602 4.96572 5.55104 5.00318 5.55104C5.00318 5.55104 5.00318 5.55104 5.01067 5.55104L6.46405 5.8507C6.51649 5.85819 6.56144 5.86568 6.61388 5.86568C6.76371 5.86568 6.91355 5.82073 7.0409 5.73083C7.28064 5.56602 7.52786 5.42368 7.79007 5.30381C7.97736 5.21391 8.1197 5.05659 8.17963 4.8618L8.64411 3.45338C8.64411 3.45338 8.67408 3.40843 8.70405 3.40094C9.13107 3.31853 9.56559 3.27358 10.0001 3.27358ZM10.0001 2.52441C9.52064 2.52441 9.03368 2.56936 8.56171 2.66676C8.26953 2.72669 8.0298 2.93645 7.93241 3.22114L7.46793 4.62956C7.16826 4.77191 6.88358 4.93672 6.61388 5.12401L5.1605 4.82435C5.10806 4.80936 5.04813 4.80936 4.99569 4.80936C4.75596 4.80936 4.53121 4.91425 4.36639 5.09405C3.7296 5.82823 3.24264 6.67478 2.928 7.58876C2.8306 7.87344 2.89054 8.18809 3.09281 8.41284L4.08171 9.5216C4.05174 9.85123 4.05174 10.1809 4.08171 10.503L3.09281 11.6118C2.89803 11.8365 2.8306 12.1512 2.928 12.4358C3.24264 13.3498 3.7296 14.1964 4.36639 14.9306C4.52371 15.1104 4.75596 15.2152 4.99569 15.2152C5.04813 15.2152 5.10806 15.2152 5.1605 15.2003L6.61388 14.9006C6.88358 15.0879 7.16826 15.2527 7.46793 15.395L7.93241 16.8035C8.0298 17.0882 8.26953 17.2979 8.56171 17.3579C9.03368 17.4478 9.52064 17.5002 10.0001 17.5002C10.4796 17.5002 10.9665 17.4552 11.4385 17.3579C11.7307 17.2979 11.9704 17.0882 12.0678 16.8035L12.5323 15.395C12.8319 15.2527 13.1166 15.0879 13.3863 14.9006L14.8397 15.2003C14.8921 15.2152 14.9521 15.2152 15.0045 15.2152C15.2442 15.2152 15.469 15.1104 15.6338 14.9306C16.2706 14.1964 16.7576 13.3498 17.0722 12.4358C17.1696 12.1512 17.1097 11.8365 16.9074 11.6118L15.9185 10.503C15.9485 10.1734 15.9485 9.84374 15.9185 9.5216L16.9074 8.41284C17.1022 8.18809 17.1696 7.87344 17.0722 7.58876C16.7576 6.67478 16.2706 5.82823 15.6338 5.09405C15.4765 4.91425 15.2442 4.80936 15.0045 4.80936C14.9521 4.80936 14.8921 4.80936 14.8397 4.82435L13.3863 5.12401C13.1166 4.93672 12.8319 4.77191 12.5323 4.62956L12.0678 3.22114C11.9704 2.93645 11.7307 2.72669 11.4385 2.66676C10.9665 2.57686 10.4796 2.52441 10.0001 2.52441Z" fill="white"/>
<path d="M10 12.6231C11.4481 12.6231 12.6221 11.4491 12.6221 10.001C12.6221 8.55285 11.4481 7.37891 10 7.37891C8.55187 7.37891 7.37793 8.55285 7.37793 10.001C7.37793 11.4491 8.55187 12.6231 10 12.6231Z" stroke="white" stroke-width="0.833333" stroke-linecap="round" stroke-linejoin="round"/>
</svg>
