<svg width="32" height="33" viewBox="0 0 32 33" fill="none" xmlns="http://www.w3.org/2000/svg">
<mask id="mask0_2011_36809" style="mask-type:alpha" maskUnits="userSpaceOnUse" x="0" y="0" width="32" height="33">
<circle cx="16" cy="16.5" r="16" fill="#D0D7D7"/>
</mask>
<g mask="url(#mask0_2011_36809)">
<mask id="mask1_2011_36809" style="mask-type:alpha" maskUnits="userSpaceOnUse" x="0" y="0" width="32" height="33">
<rect y="0.5" width="32" height="32" rx="5.9" fill="white"/>
</mask>
<g mask="url(#mask1_2011_36809)">
<path d="M32 0.5H0V32.5H32V0.5Z" fill="url(#paint0_linear_2011_36809)"/>
</g>
<path d="M24.3362 22.5848L22.7871 10.0586C22.7437 9.70207 22.5716 9.37384 22.3032 9.13599C22.0348 8.89814 21.6889 8.76715 21.3307 8.7678H21.1322C21.0883 8.7678 21.0476 8.7678 21.0053 8.7678H20.9711C20.7174 8.79307 20.4746 8.88436 20.2668 9.03262C20.0591 9.18088 19.8935 9.38097 19.7865 9.6131L16.0195 17.7724L12.2525 9.6131C12.1371 9.36291 11.9538 9.15033 11.7236 8.99969C11.4934 8.84906 11.2255 8.76643 10.9507 8.76127H10.8628H10.6643C10.3048 8.75862 9.95682 8.8887 9.68674 9.12674C9.41667 9.36478 9.24336 9.69414 9.19982 10.0521L7.66373 22.5848C7.63786 22.7916 7.65619 23.0015 7.71749 23.2007C7.7788 23.3999 7.88167 23.5837 8.01927 23.7399C8.15688 23.8961 8.32607 24.0211 8.51559 24.1067C8.7051 24.1923 8.91062 24.2364 9.11846 24.2362H9.60663C9.9712 24.238 10.3233 24.1034 10.5942 23.8586C10.865 23.6139 11.0351 23.2766 11.0711 22.9128L11.7887 15.7424L14.6608 21.8341C14.7862 22.0868 14.9795 22.2994 15.2188 22.448C15.4581 22.5965 15.734 22.6753 16.0154 22.6753C16.2969 22.6753 16.5728 22.5965 16.8121 22.448C17.0514 22.2994 17.2446 22.0868 17.3701 21.8341L20.2128 15.7962L20.9255 22.916C20.9616 23.2799 21.1317 23.6171 21.4025 23.8619C21.6733 24.1066 22.0255 24.2413 22.39 24.2395H22.8782C23.0866 24.2402 23.2928 24.1964 23.483 24.1108C23.6732 24.0252 23.8429 23.8999 23.9809 23.7433C24.119 23.5867 24.222 23.4023 24.2833 23.2025C24.3446 23.0027 24.3626 22.7921 24.3362 22.5848Z" fill="white"/>
</g>
<defs>
<linearGradient id="paint0_linear_2011_36809" x1="1.73681" y1="0.875648" x2="30.8103" y2="32.7849" gradientUnits="userSpaceOnUse">
<stop stop-color="#11CDAB"/>
<stop offset="1" stop-color="#CC3F9A"/>
</linearGradient>
</defs>
</svg>
